<svg version="1.1" xmlns="http://www.w3.org/2000/svg" viewBox="-23.568722319731027 -18.043931877740267 45.041655513855765 40.43763808382663" fill="none" stroke="black" stroke-width="0.6%" vector-effect="non-scaling-stroke">
    <path d="M -2.76394 -2.47764 A 3 2.10515 26.25577 0 1 -3.45581 -4.9377 A 3 2.10515 26.25577 0 1 -3.23922 -5.26163 A 16 11.22748 206.25577 0 0 11.2831 -9.97454 A 16 11.22748 206.25577 0 0 12.11332 -13.96422 A 3 2.10515 26.25577 0 1 15.55671 -12.86272 L 16.9085 -11.52238 A 3 2.10515 26.25577 0 1 17.60037 -9.06232 A 3 2.10515 26.25577 0 1 16.93757 -8.37894 L 2.61415 -0.25969 A 3 2.10515 26.25577 0 1 -1.41215 -1.13729 L -2.76394 -2.47764 L -3.00033 -1.99843 A 3 2.10515 26.25577 0 1 -3.69219 -4.45848 L -3.45581 -4.9377" />
    <path d="M 11.87693 -13.48501 L 12.11332 -13.96422" />
    <path d="M 11.16084 -9.73693 A 16 11.22748 206.25577 0 0 11.87693 -13.48501" />
    <path d="M -1.64853 -0.65808 L -3.00033 -1.99843" />
    <path d="M 2.37777 0.21952 A 3 2.10515 26.25577 0 1 -1.64853 -0.65808" />
    <path d="M 16.70119 -7.89973 L 2.37777 0.21952" />
    <path d="M 17.36399 -8.58311 A 3 2.10515 26.25577 0 1 16.70119 -7.89973" />
    <path d="M 17.01444 7.26282 L 17.01444 -8.12429" />
    <path d="M 17.01444 11.25346 L 17.01444 11.23926 L 17.01444 7.26282 L 19.48312 9.36241" />
    <path d="M 16.51479 11.53669 L 16.51479 -7.79407" />
    <path d="M 17.01444 11.25346 L 16.51479 11.53669" />
    <path d="M 14.27748 10.52464 L 16.51479 11.53669" />
    <path d="M 14.27748 -6.52585 L 14.27748 10.52464" />
    <path d="M -1.37835 14.51777 L -1.37835 5.67554" />
    <path d="M -1.37835 2.15291 L -1.37835 -0.41479" />
    <path d="M 1.35861 16.84553 L 1.35861 0.50887" />
    <path d="M 0.85896 16.42058 L 0.85896 0.50527" />
    <path d="M 0.48607 2.99629 L -1.37835 2.15291 L -18.9039 -5.77483 A 1 0.50638 180 0 0 -20.31587 -5.73454 L -22.31449 -4.60163 A 1 0.50638 180 0 0 -22.56872 -4.26427 L -22.56872 -3.40196 A 1 0.50638 180 0 0 -22.23493 -3.02432 L -22.23493 -3.88664 L -2.84496 4.88449 A 1 0.50638 180 0 0 -1.43298 4.8442 L 0.56563 3.71128 A 1 0.50638 180 0 0 0.81987 3.37393 L 0.81987 4.23624" />
    <path d="M 0.85896 16.42058 L -1.37835 14.51777 L -15.67471 2.35885" />
    <path d="M 19.98277 9.07918 L 19.48312 9.36241" />
    <path d="M -1.29192 -8.30657 L 2.79728 -4.82874" />
    <path d="M 6.19128 -1.94218 L 14.27748 4.93507" />
    <path d="M -0.79227 -8.5898 L -1.29192 -8.30657 L -3.42734 -7.84698 L -3.42734 -5.33472" />
    <path d="M 19.98277 9.07918 L 17.01444 6.55464" />
    <path d="M 14.27748 4.22688 L 6.69093 -2.22541" />
    <path d="M 3.52193 -4.92061 L 1.48008 -6.65719 L -0.79227 -8.5898 L -2.24876 -8.27633 L -2.24876 -14.014" />
    <path d="M 18.59166 11.95272 L 19.48312 9.36241" />
    <path d="M 18.59166 11.95272 L 17.01444 11.23926" />
    <path d="M 14.27748 9.72306 L 2.81313 -0.02727" />
    <path d="M -3.2817 -5.21086 L -3.42734 -5.33472" />
    <path d="M 3.32763 18.52016 L 0.85896 16.42058" />
    <path d="M 2.43617 21.11048 L 3.32763 18.52016 L 2.82797 18.80339" />
    <path d="M -1.43298 5.70651 L 0.56563 4.57359 L 0.56563 3.71128" />
    <path d="M -2.84496 5.7468 A 1 0.50638 180 0 0 -1.43298 5.70651 L -1.43298 4.8442" />
    <path d="M 0.56563 4.57359 A 1 0.50638 180 0 0 0.81987 4.23624" />
    <path d="M -22.23493 -3.02432 L -2.84496 5.7468 L -2.84496 4.88449" />
    <path d="M 0.81987 3.37393 A 1 0.50638 180 0 0 0.48607 2.99629" />
    <path d="M -22.56872 -4.26427 A 1 0.50638 180 0 0 -22.23493 -3.88664" />
    <path d="M -15.67471 3.06703 L 2.82797 18.80339" />
    <path d="M 19.09131 11.66949 L 18.59166 11.95272" />
    <path d="M 19.09131 11.66949 L 19.98277 9.07918" />
    <path d="M -2.92768 -8.13021 L -3.42734 -7.84698" />
    <path d="M -2.24876 -8.27633 L -2.92768 -8.13021" />
    <path d="M -0.10467 -13.04412 L -0.10467 -9.07206" />
    <path d="M 1.48008 -12.32725 L 1.48008 -6.65719" />
    <path d="M -1.67909 19.75817 L -15.67471 7.85503 L -15.67471 3.06703 L -15.67471 -0.05679" />
    <path d="M -19.90321 4.25873 L -20.08248 4.10626" />
    <path d="M -1.67909 19.75817 L 1.93652 21.39371 L 2.82797 18.80339" />
    <path d="M 2.43617 21.11048 L 1.93652 21.39371" />
    <path d="M -19.90321 1.49238 L -20.08248 1.594 L -19.90321 1.55542" />
    <path d="M -20.08248 1.594 L -20.08248 4.10626" />
    <path d="M -19.90321 0.01895 L -19.90321 12.03788 L -16.17437 13.72463 L -16.17437 -0.28281" />
    <path d="M -17.75912 -0.99968 L -17.75912 0.93539 L -18.78125 1.51478 L -19.34057 1.26176 L -20.15052 -0.52733 L -20.15052 -2.08143" />
    <path d="M -19.59119 -0.27432 L -20.15052 -0.52733" />
    <path d="M -19.59119 -0.27432 L -19.59119 -1.82842" />
    <path d="M -18.78125 1.51478 L -19.59119 -0.27432" />
    <path d="M -15.67471 13.4414 L -16.17437 13.72463" />
    <path d="M -15.67471 13.4414 L -15.67471 7.85503" />
    <path d="M 1.48008 3.71719 L 1.97974 3.43396" />
    <path d="M 1.48008 0.49767 L 1.48008 3.71719 L 1.35861 3.66224" />
    <path d="M 1.97974 -12.10123 L 1.97974 -6.23223" />
    <path d="M 1.97974 0.39226 L 1.97974 3.43396" />
    <path d="M -0.43778 -8.88324 L -0.10467 -9.07206" />
    <path d="M -0.43778 -13.1948 L -0.43778 -8.88324" />
    <path d="M -0.9971 -9.13625 L -0.43778 -8.88324" />
    <path d="M -0.9971 -13.44781 L -0.9971 -9.13625" />
    <path d="M 17.01444 -5.32155 A 1 0.50638 180 0 0 18.22008 -5.43385 L 18.22008 -6.29616 L 20.2187 -7.42908 A 1 0.50638 180 0 0 20.47293 -7.76643 L 20.47293 -6.90412" />
    <path d="M -0.43778 -13.1948 L 10.23197 -8.3683" />
    <path d="M -2.58186 -14.16468 L -0.9971 -13.44781" />
    <path d="M -2.91566 -14.54232 A 1 0.50638 180 0 0 -2.58186 -14.16468 L -2.58186 -15.027 L 10.71932 -9.01016" />
    <path d="M 20.2187 -6.56677 A 1 0.50638 180 0 0 20.47293 -6.90412" />
    <path d="M 18.22008 -5.43385 L 20.2187 -6.56677 L 20.2187 -7.42908" />
    <path d="M -2.24876 1.75918 L -2.24876 -1.25322" />
    <path d="M 17.01444 -6.18386 A 1 0.50638 180 0 0 18.22008 -6.29616" />
    <path d="M 1.97974 -11.81535 L 2.05507 -12.06715" />
    <path d="M -2.66142 -15.74199 A 1 0.50638 180 0 0 -2.91566 -15.40464 L -2.91566 -14.54232" />
    <path d="M -2.91566 -15.40464 A 1 0.50638 180 0 0 -2.58186 -15.027" />
    <path d="M -0.66281 -16.87491 L -2.66142 -15.74199" />
    <path d="M 0.74917 -16.91519 A 1 0.50638 180 0 0 -0.66281 -16.87491" />
    <path d="M 20.13914 -8.14407 L 17.67964 -9.25664" />
    <path d="M 11.79305 -11.91946 L 0.74917 -16.91519" />
    <path d="M 20.47293 -7.76643 A 1 0.50638 180 0 0 20.13914 -8.14407" />
    <path d="M -1.41215 -1.13729 L -1.64853 -0.65808" />
    <path d="M 2.61415 -0.25969 L 2.37777 0.21952" />
    <path d="M 16.93757 -8.37894 L 16.70119 -7.89973" />
    <path d="M 17.36399 -8.58311 L 17.60037 -9.06232" />
</svg>