<svg version="1.1" xmlns="http://www.w3.org/2000/svg" viewBox="-23.478001210750165 -16.75810233854513 45.02872162358126 43.05872513636531" fill="none" stroke="black" stroke-width="0.6%" vector-effect="non-scaling-stroke">
    <path d="M -4.24151 17.03794 L -3.7429 16.70288" />
    <path d="M -3.74246 16.70327 L -1.26409 15.03782" />
    <path d="M 1.47554 13.19681 L 12.37856 5.87004 L 12.37892 5.8691 L 12.56188 5.39962 L 11.7633 4.67788" />
    <path d="M -4.05855 16.56846 L -1.26409 14.6906" />
    <path d="M 1.47554 12.84958 L 12.56188 5.39962" />
    <path d="M -4.24151 17.03794 L -4.05855 16.56846" />
    <path d="M 3.29769 23.05126 L 0.97692 20.95866 L -1.26409 18.93797 L -3.7429 16.70288" />
    <path d="M -4.24151 17.03794 L 2.79908 23.38632" />
    <path d="M 3.29769 23.05126 L 2.79908 23.38632" />
    <path d="M -7.78601 13.05728 L -7.85415 12.99583" />
    <path d="M -9.84185 11.20356 L -9.90999 11.14212" />
    <path d="M -11.8977 9.34984 L -11.96584 9.2884" />
    <path d="M -13.95354 7.49612 L -14.02168 7.43468" />
    <path d="M -6.00659 15.44398 L -4.84725 16.49176" />
    <path d="M -1.77374 -6.89211 L -1.64942 -6.78" />
    <path d="M 12.37892 5.8691 L 14.35912 7.65461" />
    <path d="M 14.35912 11.04514 L 10.22484 7.31733" />
    <path d="M -1.76126 -6.70484 L -1.8451 -6.88589 L -1.92754 -7.06391 L -3.48663 -6.79079 L -13.88632 0.19775" />
    <path d="M -1.8451 -6.88589 L -1.77374 -6.89211" />
    <path d="M -5.17991 15.555 L -4.05855 16.56846" />
    <path d="M -5.17991 15.555 C -5.15 15.56 -5.13 15.56 -5.10027 15.55957 C -5.07 15.56 -5.05 15.56 -5.02093 15.56226 C -4.99 15.56 -4.97 15.56 -4.94195 15.56311 C -4.92 15.56 -4.89 15.56 -4.86338 15.56213 C -4.84 15.56 -4.81 15.56 -4.78529 15.55936 C -4.76 15.56 -4.73 15.56 -4.70773 15.55481 C -4.68 15.55 -4.66 15.55 -4.63075 15.54851 C -4.61 15.55 -4.58 15.54 -4.5544 15.54049 C -4.52 15.54 -4.49 15.53 -4.46214 15.52841 C -4.43 15.52 -4.4 15.52 -4.37098 15.51384 C -4.34 15.51 -4.31 15.5 -4.281 15.49685 C -4.25 15.49 -4.22 15.48 -4.19225 15.47747 C -4.16 15.47 -4.13 15.46 -4.10482 15.45575 C -4.08 15.45 -4.05 15.44 -4.01877 15.43173 C -3.99 15.42 -3.96 15.41 -3.93417 15.40547 C -3.91 15.4 -3.88 15.39 -3.85109 15.37699 C -3.82 15.37 -3.8 15.36 -3.76958 15.34635 C -3.74 15.34 -3.72 15.32 -3.6897 15.31359 C -3.66 15.3 -3.64 15.29 -3.61153 15.27875 C -3.59 15.27 -3.56 15.25 -3.53511 15.24187 C -3.51 15.23 -3.49 15.22 -3.4605 15.20299 C -3.44 15.19 -3.41 15.18 -3.38777 15.16215 C -3.36 15.15 -3.34 15.13 -3.31696 15.11939 C -3.29 15.1 -3.27 15.09 -3.24813 15.07475 L -1.26409 13.74148" />
    <path d="M 1.47554 11.90047 L 11.04544 5.46955 C 11.08 5.44 11.12 5.42 11.15984 5.38784 C 11.2 5.36 11.23 5.33 11.26782 5.30081 C 11.3 5.27 11.34 5.24 11.36906 5.20863 C 11.4 5.18 11.43 5.14 11.46328 5.11151 C 11.49 5.08 11.52 5.04 11.55014 5.00965 C 11.58 4.97 11.6 4.94 11.62933 4.90328 C 11.65 4.87 11.68 4.83 11.70049 4.79261 C 11.72 4.76 11.74 4.72 11.7633 4.67788" />
    <path d="M -6.00659 15.44398 L -5.9898 15.4009" />
    <path d="M -5.18072 15.55711 L -5.17991 15.555" />
    <path d="M 2.05815 25.30062 L 2.79908 23.38632" />
    <path d="M -0.12942 24.13627 L 2.05815 25.30062" />
    <path d="M -0.12942 24.13627 L -15.95582 9.86589 L -15.95582 6.47536 L -15.95582 6.46118 L -14.51321 7.76498 L -11.94198 6.03713" />
    <path d="M -15.95582 6.47536 L -7.56085 14.04495" />
    <path d="M -6.09914 15.36295 L -4.84725 16.49176" />
    <path d="M 2.55676 24.96556 L 3.29769 23.05126" />
    <path d="M -1.26409 18.93797 L -1.26409 10.86602" />
    <path d="M 0.60342 7.91003 L -1.26409 6.91603 L -18.81873 -2.42757 A 1 0.59806 180 0 0 -20.23055 -2.37842 L -22.22501 -1.03815 A 1 0.59806 180 0 0 -22.478 -0.64056 A 1 0.59806 180 0 0 -22.14282 -0.1938 L -2.72067 10.1438 A 1 0.59806 180 0 0 -1.30884 10.09464 L 0.68561 8.75438 A 1 0.59806 180 0 0 0.9386 8.35678 A 1 0.59806 180 0 0 0.60342 7.91003 Z" />
    <path d="M -1.26409 6.91603 L -1.26409 4.85288" />
    <path d="M 0.97692 20.95866 L 0.97692 5.73477" />
    <path d="M 2.55676 24.96556 L 2.05815 25.30062" />
    <path d="M -19.44245 6.72205 L -19.9974 6.22167" />
    <path d="M -19.9974 4.61488 L -19.9974 6.22167" />
    <path d="M -19.9974 4.61488 L -20.10707 4.37805 L -19.44245 4.26162" />
    <path d="M -19.55045 4.00401 L -20.10707 4.37805" />
    <path d="M -13.24312 0.5401 L -1.92754 -7.06391" />
    <path d="M -1.50415 -6.87762 L -12.85217 0.74818" />
    <path d="M 0.30004 -5.31744 L 0.34237 -5.59518 L -1.50415 -6.87762" />
    <path d="M -15.95582 5.3571 L -14.74646 4.54442" />
    <path d="M -10.75686 1.86343 L 0.34237 -5.59518" />
    <path d="M 19.91813 11.88242 L 19.41952 12.21748" />
    <path d="M 17.09875 10.12489 L 19.41952 12.21748" />
    <path d="M -1.27513 -7.22717 L -1.77374 -6.89211" />
    <path d="M 19.91813 11.88242 L 17.09875 9.34023" />
    <path d="M 14.35912 6.86995 L 11.81173 4.57302" />
    <path d="M 8.38517 1.48335 L 8.21901 1.33352" />
    <path d="M 2.02885 -4.24803 L 1.16323 -5.02854 L -1.27513 -7.22717 L -1.82479 -7.17926 L -1.82479 -12.19585" />
    <path d="M 14.35912 -3.09591 L 14.35912 12.44637 L 16.60014 13.63917 L 16.60014 -4.60186" />
    <path d="M -2.87835 -7.08741 L -3.26092 -6.83032" />
    <path d="M -1.82479 -7.17926 L -2.87835 -7.08741" />
    <path d="M -7.00886 14.82414 L -7.10452 14.73297 L -7.19364 14.63788 L -7.27593 14.53918 L -7.35114 14.43717 L -7.41903 14.33217 L -7.47938 14.22452 L -7.53201 14.11455 L -7.57676 14.0026 L -7.61348 13.88903 L -7.64206 13.77419 L -7.66241 13.65844 L -7.67446 13.54214 L -7.67818 13.42566 L -7.67356 13.30936 L -7.67177 13.30473" />
    <path d="M -5.18072 15.55711 L -5.3292 15.54369 L -5.4767 15.52383 L -5.62274 15.49757 L -5.76688 15.46501 L -5.90866 15.42624 L -6.04764 15.38138 L -6.18339 15.33058 L -6.31547 15.274 L -6.44348 15.21181 L -6.56701 15.14421 L -6.68567 15.0714 L -6.7991 14.99363 L -6.90694 14.91112 L -7.00886 14.82414" />
    <path d="M 11.83059 4.52632 L 11.8263 4.5373 L 11.82193 4.54825 L 11.81748 4.55918 L 11.81296 4.5701 L 11.80835 4.58099 L 11.80367 4.59186 L 11.79891 4.6027 L 11.79407 4.61353 L 11.78916 4.62433 L 11.78417 4.63511 L 11.7791 4.64587 L 11.77395 4.6566 L 11.76872 4.66731 L 11.76342 4.67799" />
    <path d="M 11.45602 2.06717 L 11.57882 2.18616 L 11.69047 2.31158 L 11.79039 2.44277 L 11.87804 2.57904 L 11.95296 2.71967 L 12.01477 2.86393 L 12.06313 3.01105 L 12.09779 3.16025 L 12.11857 3.31076 L 12.12536 3.46177 L 12.11812 3.6125 L 12.09689 3.76215 L 12.06179 3.90993 L 12.01299 4.05507 L 11.98067 4.13289 L 11.94439 4.20958 L 11.90422 4.28502 L 11.86022 4.35907 L 11.81245 4.43163 L 11.76099 4.50258 L 11.70592 4.57182 L 11.64733 4.63923 L 11.58531 4.7047 L 11.51996 4.76814 L 11.45137 4.82944 L 11.37967 4.88851 L 11.30495 4.94526 L 11.22734 4.99959 L 1.47554 11.55275" />
    <path d="M -3.06623 14.60479 L -3.30064 14.74484 L -3.55431 14.86311 L -3.82405 14.9581 L -4.10646 15.02863 L -4.398 15.07381 L -4.69499 15.09307 L -4.99371 15.08616 L -5.29039 15.05318 L -5.58131 14.99454 L -5.8628 14.91097 L -6.13134 14.80353 L -6.38353 14.67357 L -6.61621 14.52273 L -6.82646 14.35289 L -6.94926 14.2339 L -7.06091 14.10848 L -7.16082 13.97728 L -7.24847 13.84101 L -7.3234 13.70038 L -7.3852 13.55612 L -7.43356 13.40901 L -7.46822 13.2598 L -7.489 13.1093 L -7.49579 12.95828 L -7.48855 12.80755 L -7.46733 12.6579 L -7.43222 12.51012 L -7.38343 12.36499 L -7.56583 12.83624" />
    <path d="M -1.26409 13.39376 L -3.06623 14.60479 L -3.24813 15.07475" />
    <path d="M 1.47554 21.40825 L 1.47554 5.55725" />
    <path d="M -1.30884 10.8961 L 0.68561 9.55584 A 1 0.59806 180 0 0 0.9386 9.15824" />
    <path d="M -2.72067 10.94525 A 1 0.59806 180 0 0 -1.30884 10.8961 L -1.30884 10.09464" />
    <path d="M -22.14282 0.60765 L -2.72067 10.94525 L -2.72067 10.1438" />
    <path d="M -22.478 0.1609 A 1 0.59806 180 0 0 -22.14282 0.60765 L -22.14282 -0.1938" />
    <path d="M -1.79919 4.30036 A 2 1.53441 29.48529 0 1 -2.21052 2.42246 L -1.97375 2.00371 A 2 1.53441 29.48529 0 1 -1.58682 1.59 L -1.28942 1.39014 A 20 15.34409 209.48529 0 0 12.46364 -5.34978 A 20 15.34409 209.48529 0 0 13.26566 -7.08169" />
    <path d="M -1.12218 4.99942 L -1.79919 4.30036" />
    <path d="M 1.56149 5.50402 A 2 1.53441 29.48529 0 1 -1.12218 4.99942" />
    <path d="M 12.34312 -5.14162 A 20 15.34409 209.48529 0 0 13.05129 -6.72423" />
    <path d="M 17.1847 -4.99468 L 1.56149 5.50402" />
    <path d="M 17.57163 -5.40839 A 2 1.53441 29.48529 0 1 17.1847 -4.99468" />
    <path d="M -15.95582 15.72574 L -16.45443 16.0608 L -16.45443 3.63534" />
    <path d="M -15.95582 15.72574 L -15.95582 9.86589" />
    <path d="M -15.95582 6.46118 L -15.95582 5.82508 L -14.32988 7.29456 L -12.23032 5.88366" />
    <path d="M -15.95582 5.82508 L -15.95582 3.90073" />
    <path d="M 19.1772 13.79672 L 18.67858 14.13179 L 17.09875 13.29091 L 17.09875 10.12489 L 17.09875 -4.93692" />
    <path d="M 19.1772 13.79672 L 19.91813 11.88242" />
    <path d="M 18.67858 14.13179 L 19.41952 12.21748" />
    <path d="M -0.05065 -11.25155 L -0.05065 -7.64459" />
    <path d="M 1.16323 -10.60545 L 1.16323 -5.02854" />
    <path d="M 17.09875 13.3041 L 17.09875 13.29091" />
    <path d="M 17.09875 13.3041 L 16.60014 13.63917" />
    <path d="M -1.82479 -0.65433 L -1.82479 -0.76156" />
    <path d="M -8.06085 13.5892 L -7.56317 14.03899" />
    <path d="M -7.87753 13.11877 L -7.67177 13.30473" />
    <path d="M -8.06085 13.5892 L -7.87753 13.11877" />
    <path d="M -7.38343 12.36499 L -7.3511 12.28716 L -7.31483 12.21047 L -7.27465 12.13504 L -7.23065 12.06098 L -7.18288 11.98842 L -7.13142 11.91747 L -7.07635 11.84824 L -7.01776 11.78083 L -6.95574 11.71536 L -6.89039 11.65192 L -6.82181 11.59061 L -6.7501 11.53154 L -6.67538 11.4748 L -6.59777 11.42046 L -6.2642 11.1963" />
    <path d="M -7.59967 12.93206 L -7.59745 12.92517 L -7.5952 12.91829 L -7.59292 12.91141 L -7.59061 12.90454 L -7.58827 12.89768 L -7.58589 12.89083 L -7.58349 12.88398 L -7.58106 12.87714 L -7.5786 12.8703 L -7.5761 12.86348 L -7.57358 12.85666 L -7.57102 12.84985 L -7.56844 12.84304 L -7.56583 12.83624" />
    <path d="M -7.59924 12.93177 C -7.61 12.96 -7.62 12.99 -7.62529 13.02283 C -7.63 13.05 -7.64 13.08 -7.64616 13.11545 C -7.65 13.15 -7.66 13.18 -7.6617 13.20947 C -7.67 13.24 -7.67 13.27 -7.67177 13.30473" />
    <path d="M 8.04985 1.61559 L 8.28323 1.51856 L 8.52845 1.44054 L 8.78306 1.3823 L 9.0445 1.34443 L 9.31013 1.32731 L 9.57729 1.33112 L 9.84328 1.35581 L 10.10543 1.40114 L 10.36111 1.46665 L 10.60773 1.55168 L 10.84283 1.65538 L 11.06403 1.7767 L 11.26912 1.91442 L 11.45602 2.06717" />
    <path d="M -8.35041 13.32932 L -7.54796 12.79007" />
    <path d="M -8.16709 12.8589 L -7.36533 12.32013" />
    <path d="M -8.35041 13.32932 L -8.16709 12.8589" />
    <path d="M -7.59924 12.93177 L -7.87753 13.11877" />
    <path d="M 6.08563 4.8909 L 4.97834 6.40667" />
    <path d="M 4.96245 6.39763 L 4.97834 6.40667" />
    <path d="M 4.88043 6.5344 L 3.48215 7.86367" />
    <path d="M 3.44326 7.8357 L 3.48215 7.86367" />
    <path d="M 3.35962 7.97516 L 1.69758 9.09204" />
    <path d="M 1.6244 9.02606 L 1.69758 9.09204" />
    <path d="M 1.538 9.17012 L 1.47554 9.19925" />
    <path d="M -2.98567 10.8042 L -5.0523 11.1433" />
    <path d="M -5.13971 10.96653 L -5.0523 11.1433" />
    <path d="M -5.25245 11.15453 L -6.2642 11.1963" />
    <path d="M -19.44245 4.21064 L -19.44245 14.47041 L -16.45443 16.0608" />
    <path d="M -17.66831 2.98924 L -17.66831 4.19437 L -18.68831 4.8798 L -19.24856 4.5816 L -20.05682 3.03521 L -20.05682 1.71794" />
    <path d="M -19.49656 3.33341 L -20.05682 3.03521" />
    <path d="M -19.49656 3.33341 L -19.49656 2.01614" />
    <path d="M -18.68831 4.8798 L -19.49656 3.33341" />
    <path d="M -1.56242 3.88162 A 2 1.53441 29.48529 0 1 -1.97375 2.00371" />
    <path d="M -0.8854 4.58067 L -1.56242 3.88162 L -1.79919 4.30036" />
    <path d="M 1.79827 5.08528 A 2 1.53441 29.48529 0 1 -0.8854 4.58067 L -1.12218 4.99942" />
    <path d="M 17.42148 -5.41343 L 1.79827 5.08528 L 1.56149 5.50402" />
    <path d="M 17.39708 -7.70505 A 2 1.53441 29.48529 0 1 17.80841 -5.82714 A 2 1.53441 29.48529 0 1 17.42148 -5.41343 L 17.1847 -4.99468" />
    <path d="M 14.4808 -9.10791 A 2 1.53441 29.48529 0 1 16.72006 -8.4041 L 17.39708 -7.70505" />
    <path d="M -14.51321 7.76498 L -14.32988 7.29456" />
    <path d="M -8.24071 3.20267 L 0.00622 -2.33922" />
    <path d="M 1.87761 -4.24748 L 0.52585 -5.46918 L -10.54984 1.97362" />
    <path d="M -14.53944 4.65461 L -15.95582 5.6064" />
    <path d="M -7.95237 3.35614 L -0.34258 -1.7576" />
    <path d="M 1.66185 -10.34006 L 1.66185 -4.57895" />
    <path d="M -0.38306 -7.42122 L -0.05065 -7.64459" />
    <path d="M -0.38306 -11.42848 L -0.38306 -7.42122" />
    <path d="M -0.94332 -7.71942 L -0.38306 -7.42122" />
    <path d="M -0.94332 -11.72668 L -0.94332 -7.71942" />
    <path d="M 17.09875 -2.14894 A 1 0.59806 180 0 0 18.30327 -2.28313 L 18.30327 -3.08458 L 20.29773 -4.42484 A 1 0.59806 180 0 0 20.55072 -4.82244 L 20.55072 -4.02099" />
    <path d="M -0.38306 -11.42848 L 9.81713 -5.99934" />
    <path d="M 11.93921 -4.86985 L 12.11685 -4.7753" />
    <path d="M -2.5307 -12.57158 L -0.94332 -11.72668" />
    <path d="M -2.86589 -13.01833 A 1 0.59806 180 0 0 -2.5307 -12.57158 L -2.5307 -13.37303 L 10.5118 -6.43105" />
    <path d="M 20.29773 -3.62339 A 1 0.59806 180 0 0 20.55072 -4.02099" />
    <path d="M 18.30327 -2.28313 L 20.29773 -3.62339 L 20.29773 -4.42484" />
    <path d="M -9.93179 11.26399 L -8.16709 12.8589" />
    <path d="M -6.95008 9.2603 L -9.93179 11.26399" />
    <path d="M 8.26928 1.5237 L 8.16271 1.42739" />
    <path d="M -7.90691 11.48083 L -7.84949 11.65986" />
    <path d="M -6.85461 11.61931 L -7.84949 11.65986" />
    <path d="M -10.11512 11.73442 L -8.35041 13.32932" />
    <path d="M 15.16727 -12.12842 L 12.98046 -8.48194" />
    <path d="M 15.85853 -11.85523 L 15.77417 -11.71456" />
    <path d="M 15.16727 -12.12842 L 15.85853 -11.85523" />
    <path d="M 13.05276 -8.55119 L 15.1478 -12.04464 L 14.31216 -10.30369 L 14.97498 -9.9544 L 14.89064 -9.81377" />
    <path d="M 15.1478 -12.04464 L 15.81062 -11.69535 L 14.97498 -9.9544" />
    <path d="M 14.31216 -10.30369 L 14.20292 -10.12153" />
    <path d="M 3.54933 -4.25054 L 3.47905 -4.13335" />
    <path d="M 5.75039 -4.55023 L 3.54933 -4.25054 L 3.80654 -3.62868 L 0.82609 1.34117" />
    <path d="M -1.27386 4.8428 L -2.21398 6.41045" />
    <path d="M -4.3981 10.05242 L -5.0523 11.1433" />
    <path d="M 3.44801 -4.25315 L 3.61082 -3.62484 L 1.31185 -3.61654 L -4.09953 5.40685" />
    <path d="M -5.25245 11.15453 L -4.54471 9.97439" />
    <path d="M -2.3606 6.33241 L -1.3933 4.71947" />
    <path d="M 0.62407 1.35553 L 3.61082 -3.62484" />
    <path d="M -10.11512 11.73442 L -9.93179 11.26399" />
    <path d="M 6.08563 4.8909 L 8.52369 0.82547" />
    <path d="M 11.00148 -3.30621 L 14.90023 -9.80731 L 13.76523 -8.24534 L 10.46184 -2.73699" />
    <path d="M 8.19158 1.04865 L 4.97834 6.40667" />
    <path d="M 13.14375 -8.66391 L 13.10006 -8.59107" />
    <path d="M 13.14375 -8.66391 L 13.76523 -8.24534" />
    <path d="M 13.09705 -8.59361 L 13.6651 -8.1139 L 12.25283 -6.76131 L 9.17155 -1.62331" />
    <path d="M 4.88043 6.5344 L 8.15588 1.07263" />
    <path d="M 10.40989 -2.68589 L 13.6651 -8.1139" />
    <path d="M 7.149 1.74925 L 3.48215 7.86367" />
    <path d="M 11.68479 -7.24102 L 11.63932 -7.16522" />
    <path d="M 11.68479 -7.24102 L 12.25283 -6.76131" />
    <path d="M 11.62571 -7.17959 L 12.12926 -6.64807 L 10.46722 -5.53119 L 7.46995 -0.53329" />
    <path d="M 3.35962 7.97516 L 7.05576 1.81191" />
    <path d="M 9.0709 -1.5483 L 12.12926 -6.64807" />
    <path d="M 5.39372 2.92879 L 1.69758 9.09204" />
    <path d="M 9.96366 -6.06271 L 9.9146 -5.98089" />
    <path d="M 9.96366 -6.06271 L 10.46722 -5.53119" />
    <path d="M 9.87943 -6.02783 L 10.30869 -5.45485 L 8.42921 -4.59542 L 5.45165 0.36962" />
    <path d="M 1.538 9.17012 L 5.20486 3.0557" />
    <path d="M 7.30424 -0.44498 L 10.30869 -5.45485" />
    <path d="M 2.92 4.59112 L 1.47554 6.99973" />
    <path d="M 7.99995 -5.16839 L 7.94642 -5.07913" />
    <path d="M 7.99995 -5.16839 L 8.42921 -4.59542" />
    <path d="M 7.9082 -5.14565 L 8.25481 -4.54237 L 6.19449 -3.95711 L 3.22036 1.00221" />
    <path d="M 1.47554 6.76196 L 2.68115 4.75162" />
    <path d="M 5.27044 0.43403 L 8.25481 -4.54237" />
    <path d="M 5.84788 -4.56039 L 5.7877 -4.46004" />
    <path d="M 5.84788 -4.56039 L 6.19449 -3.95711" />
    <path d="M 5.75039 -4.55023 L 6.00761 -3.92838 L 3.80654 -3.62868" />
    <path d="M 3.02698 1.04177 L 6.00761 -3.92838" />
    <path d="M -6.28364 9.04883 L -7.84949 11.65986" />
    <path d="M 16.37855 -13.74127 L 15.85853 -11.85523" />
    <path d="M 14.27875 -10.22589 L 14.90023 -9.80731" />
    <path d="M 12.30354 -5.47738 L 12.47199 -5.38772" />
    <path d="M 17.09875 -2.95039 A 1 0.59806 180 0 0 18.30327 -3.08458" />
    <path d="M 1.66185 -9.29664 L 1.93719 -10.1935" />
    <path d="M -2.61289 -14.21738 A 1 0.59806 180 0 0 -2.86589 -13.81978 L -2.86589 -13.01833" />
    <path d="M -2.86589 -13.81978 A 1 0.59806 180 0 0 -2.5307 -13.37303" />
    <path d="M -0.61844 -15.55764 L -2.61289 -14.21738" />
    <path d="M 0.79338 -15.6068 A 1 0.59806 180 0 0 -0.61844 -15.55764" />
    <path d="M 20.21554 -5.2692 L 17.9649 -6.46712" />
    <path d="M 12.80737 -9.21225 L 0.79338 -15.6068" />
    <path d="M 20.55072 -4.82244 A 1 0.59806 180 0 0 20.21554 -5.2692" />
    <path d="M 11.56317 -7.13756 L 15.68729 -14.01447 L 15.16727 -12.12842" />
    <path d="M 15.68729 -14.01447 L 16.37855 -13.74127" />
    <path d="M 3.44801 -4.25315 L 1.14904 -4.24485 L 1.31185 -3.61654" />
    <path d="M 1.14904 -4.24485 L -4.50857 5.18913" />
    <path d="M -6.69269 8.83111 L -8.02 11.04438 L -7.90691 11.48083" />
    <path d="M 14.27875 -10.22589 L 13.14375 -8.66391" />
    <path d="M 13.09705 -8.59361 L 11.68479 -7.24102" />
    <path d="M 11.62571 -7.17959 L 9.96366 -6.06271" />
    <path d="M 9.87943 -6.02783 L 7.99995 -5.16839" />
    <path d="M 7.9082 -5.14565 L 5.84788 -4.56039" />
    <path d="M -10.40468 11.47454 L -10.22135 11.00412 L -6.8573 8.74349" />
    <path d="M -10.40468 11.47454 L -6.84236 9.08069" />
    <path d="M -12.16938 9.87964 L -11.98606 9.40922 L -10.22135 11.00412" />
    <path d="M -3.70019 3.84116 L -5.17682 4.83345" />
    <path d="M -9.16643 7.51444 L -11.98606 9.40922" />
    <path d="M -12.16938 9.87964 L -10.40468 11.47454" />
    <path d="M -12.45894 9.61976 L -12.27562 9.14934 L -9.54381 7.31358" />
    <path d="M -12.45894 9.61976 L -9.25547 7.46705" />
    <path d="M -5.26587 4.78605 L -3.59247 3.66154" />
    <path d="M -5.5542 4.63259 L -3.24367 3.07992" />
    <path d="M -14.22365 8.02486 L -14.04032 7.55444 L -12.27562 9.14934" />
    <path d="M -0.4503 -1.57798 L -7.86333 3.40353" />
    <path d="M -11.85294 6.08452 L -14.04032 7.55444" />
    <path d="M -14.22365 8.02486 L -12.45894 9.61976" />
    <path d="M 11.22734 4.99959 L 11.04544 5.46955" />
    <path d="M 0.68561 9.55584 L 0.68561 8.75438" />
    <path d="M 12.01299 4.05507 L 11.83059 4.52632" />
    <path d="M 0.9386 8.35678 L 0.9386 9.15824" />
    <path d="M -22.478 -0.64056 L -22.478 0.1609" />
    <path d="M 17.57163 -5.40839 L 17.80841 -5.82714" />
</svg>