<svg version="1.1" xmlns="http://www.w3.org/2000/svg" viewBox="-23.48429712017128 -16.868254389837254 45.01890689536789 42.902520750020656" fill="none" stroke="black" stroke-width="0.6%" vector-effect="non-scaling-stroke">
    <path d="M 1.48889 6.03997 L 3.39268 2.64285" />
    <path d="M 6.2247 -2.43977 L 6.23509 -2.42909 L 9.05351 -7.45825 L 8.54511 -7.98088 L 10.20455 -9.08848" />
    <path d="M 1.48889 4.61016 L 2.11257 3.49727" />
    <path d="M 5.13325 -1.89279 L 8.54511 -7.98088" />
    <path d="M 1.56378 7.35431 L 1.92682 7.11199" />
    <path d="M 10.71294 -8.56585 L 7.89411 -3.53597" />
    <path d="M 5.05212 1.53526 L 1.92682 7.11199" />
    <path d="M 9.05351 -7.45825 L 10.71294 -8.56585 L 10.20455 -9.08848" />
    <path d="M 6.23509 -2.42909 L 6.3971 -2.53723 A 20 15.25724 209.26698 0 0 11.05931 -7.17522 A 20 15.25724 209.26698 0 0 11.90177 -9.04777 L 12.61037 -9.52073 L 12.84398 -9.65859 L 13.09597 -9.77281 L 13.36316 -9.86195 L 13.6422 -9.92489 L 13.92957 -9.96084 L 14.22166 -9.96935 L 14.5148 -9.95031 L 14.8053 -9.90396 L 15.08951 -9.83088 L 15.36385 -9.73199 L 15.62488 -9.60854 L 15.86932 -9.46207 L 16.09408 -9.29444 L 16.29634 -9.10774 L 16.42694 -8.96241 L 16.54363 -8.80931 L 16.64563 -8.64945 L 16.73228 -8.48387 L 16.80301 -8.31367 L 16.85736 -8.13997 L 16.89496 -7.96389 L 16.91557 -7.78659 L 16.91906 -7.60925 L 16.90541 -7.43301 L 16.8747 -7.25904 L 16.82713 -7.08848 L 16.76302 -6.92245 L 16.68278 -6.76203 L 16.64771 -6.702 L 16.61035 -6.64301 L 16.57075 -6.58513 L 16.52895 -6.5284 L 16.48498 -6.47289 L 16.43889 -6.41866 L 16.39073 -6.36574 L 16.34054 -6.3142 L 16.28837 -6.26409 L 16.23427 -6.21544 L 16.1783 -6.16832 L 16.1205 -6.12276 L 16.06094 -6.07882 L 15.99967 -6.03652 L 1.72856 3.48879 L 1.49494 3.62665 L 1.24296 3.74087 L 0.97577 3.83001 L 0.69673 3.89295 L 0.40936 3.9289 L 0.11727 3.93741 L -0.17587 3.91837 L -0.46637 3.87202 L -0.75058 3.79894 L -1.02493 3.70005 L -1.28596 3.5766 L -1.53039 3.43013 L -1.75515 3.2625 L -1.95741 3.0758 L -2.08801 2.93047 L -2.2047 2.77737 L -2.3067 2.61751 L -2.39336 2.45193 L -2.46408 2.28173 L -2.51843 2.10803 L -2.55603 1.93195 L -2.57665 1.75465 L -2.58014 1.57731 L -2.56648 1.40107 L -2.53577 1.2271 L -2.4882 1.05654 L -2.42409 0.89051 L -2.34386 0.73009 L -2.30878 0.67006 L -2.27142 0.61107 L -2.23182 0.55319 L -2.19002 0.49646 L -2.14605 0.44095 L -2.09997 0.38672 L -2.05181 0.3338 L -2.00161 0.28226 L -1.94944 0.23215 L -1.89535 0.1835 L -1.83937 0.13638 L -1.78157 0.09082 L -1.72201 0.04688 L -1.66074 0.00458 L -0.95213 -0.46838 A 20 15.25724 209.26698 0 0 6.2247 -2.43977" />
    <path d="M -7.00893 10.32024 A 20 14.68374 201.01724 0 0 -4.10383 9.8573" />
    <path d="M 1.48889 7.40763 A 20 14.68374 201.01724 0 0 1.56378 7.35431" />
    <path d="M 1.95394 7.06361 A 20 14.68374 201.01724 0 0 5.71172 2.10733 A 20 14.68374 201.01724 0 0 5.84497 1.74084 L 6.55358 1.26788 L 6.78765 1.12903 L 7.04101 1.01187 L 7.31048 0.91786 L 7.59266 0.84818 L 7.88401 0.80372 L 8.18086 0.78502 L 8.47948 0.79234 L 8.77611 0.82557 L 9.06703 0.8843 L 9.34857 0.96778 L 9.61719 1.07497 L 9.86953 1.20453 L 10.10239 1.35481 L 10.31286 1.52394 L 10.43554 1.6421 L 10.54715 1.7666 L 10.64709 1.8968 L 10.73485 2.03201 L 10.80996 2.17153 L 10.87202 2.31461 L 10.92072 2.46052 L 10.9558 2.60848 L 10.97708 2.75773 L 10.98444 2.90747 L 10.97784 3.05693 L 10.95733 3.20532 L 10.923 3.35187 L 10.87504 3.4958 L 10.84296 3.57351 L 10.8069 3.65008 L 10.76689 3.7254 L 10.72302 3.79932 L 10.67534 3.87176 L 10.62394 3.94257 L 10.5689 4.01167 L 10.51029 4.07893 L 10.44822 4.14424 L 10.38278 4.20752 L 10.31408 4.26865 L 10.24222 4.32754 L 10.16733 4.38409 L 10.08951 4.43822 L 1.48889 10.17874" />
    <path d="M 5.66235 2.21618 L 5.84497 1.74084" />
    <path d="M 5.6176 2.34392 A 20 14.68374 201.01724 0 0 5.66235 2.21618" />
    <path d="M -4.1816 13.96354 L -4.41568 14.10238 L -4.66904 14.21955 L -4.93851 14.31356 L -5.22069 14.38324 L -5.51203 14.4277 L -5.80888 14.44639 L -6.1075 14.43908 L -6.40413 14.40585 L -6.69505 14.34712 L -6.97659 14.26364 L -7.24522 14.15644 L -7.49755 14.02689 L -7.73041 13.87661 L -7.94088 13.70748 L -8.06357 13.58932 L -8.17517 13.46481 L -8.27512 13.33462 L -8.36287 13.1994 L -8.43798 13.05989 L -8.50005 12.91681 L -8.54875 12.7709 L -8.58383 12.62294 L -8.6051 12.47369 L -8.61246 12.32394 L -8.60587 12.17448 L -8.58535 12.02609 L -8.55102 11.87955 L -8.50306 11.73562 L -8.47099 11.6579 L -8.43492 11.58133 L -8.39492 11.50602 L -8.35104 11.43209 L -8.30337 11.35966 L -8.25197 11.28884 L -8.19692 11.21975 L -8.13831 11.15249 L -8.07624 11.08717 L -8.0108 11.0239 L -7.9421 10.96277 L -7.87025 10.90388 L -7.79535 10.84733 L -7.71753 10.7932 L -7.00893 10.32024" />
    <path d="M -1.25275 12.00866 L -4.1816 13.96354 L -4.36423 14.43887 L -4.5983 14.57772 L -4.85167 14.69488 L -5.12113 14.78889 L -5.40331 14.85857 L -5.69466 14.90303 L -5.99151 14.92173 L -6.29013 14.91441 L -6.58676 14.88118 L -6.87768 14.82246 L -7.15922 14.73897 L -7.42784 14.63178 L -7.68018 14.50222 L -7.91304 14.35194 L -8.12351 14.18281 L -8.2462 14.06465 L -8.3578 13.94015 L -8.45774 13.80995 L -8.5455 13.67474 L -8.62061 13.53522 L -8.68267 13.39214 L -8.73138 13.24623 L -8.76646 13.09827 L -8.78773 12.94902 L -8.79509 12.79928 L -8.7885 12.64982 L -8.76798 12.50143 L -8.73365 12.35488 L -8.68569 12.21095" />
    <path d="M 15.7626 -5.6135 L 1.49149 3.91182 L 1.47251 3.92436 L 1.45337 3.93674 L 1.43409 3.94896 L 1.41466 3.96102 L 1.39509 3.97292 L 1.37537 3.98466 L 1.35551 3.99624 L 1.3355 4.00765 L 1.31536 4.01889 L 1.29508 4.02997 L 1.27467 4.04088 L 1.25413 4.05162 L 1.23345 4.06219 L 1.21264 4.07259" />
    <path d="M 16.14027 -5.92863 L 16.11614 -5.90386 L 16.09154 -5.87942 L 16.06649 -5.85531 L 16.04099 -5.83154 L 16.01505 -5.80811 L 15.98867 -5.78503 L 15.96185 -5.7623 L 15.93461 -5.73993 L 15.90696 -5.71792 L 15.87889 -5.69628 L 15.85041 -5.67502 L 15.82153 -5.65413 L 15.79226 -5.63362 L 15.7626 -5.6135" />
    <path d="M 10.93857 -6.96494 A 20 15.25724 209.26698 0 0 11.6647 -8.62475 L 11.90177 -9.04777" />
    <path d="M -2.19448 3.49882 L -2.32508 3.35349 L -2.44177 3.20039 L -2.54377 3.04053 L -2.63042 2.87495 L -2.70115 2.70476 L -2.7555 2.53105 L -2.7931 2.35497 L -2.81371 2.17767 L -2.8172 2.00033 L -2.80355 1.82409 L -2.77284 1.65013 L -2.72527 1.47957 L -2.66116 1.31353 L -2.58092 1.15312" />
    <path d="M 0.39032 4.32724 L 0.18959 4.35055 L -0.01354 4.36053 L -0.21782 4.35713 L -0.42202 4.34036 L -0.62488 4.31033 L -0.82517 4.26721 L -1.02165 4.21128 L -1.21313 4.14287 L -1.39844 4.0624 L -1.57644 3.97037 L -1.74606 3.86734 L -1.90624 3.75393 L -2.05602 3.63084 L -2.19448 3.49882" />
    <path d="M 9.90688 4.91355 L 1.48889 10.53218" />
    <path d="M -1.25275 12.3621 L -4.36423 14.43887" />
    <path d="M 10.69241 3.97113 L 10.66033 4.04885 L 10.62427 4.12542 L 10.58427 4.20073 L 10.54039 4.27466 L 10.49272 4.34709 L 10.44132 4.41791 L 10.38627 4.487 L 10.32766 4.55426 L 10.26559 4.61958 L 10.20015 4.68285 L 10.13145 4.74398 L 10.0596 4.80287 L 9.9847 4.85942 L 9.90688 4.91355" />
    <path d="M 16.14027 -5.92863 L 16.23061 -6.08982 C 16.26 -6.12 16.29 -6.15 16.31688 -6.18534 C 16.34 -6.22 16.37 -6.25 16.39656 -6.2854 C 16.42 -6.32 16.45 -6.35 16.46939 -6.38984 C 16.49 -6.43 16.51 -6.46 16.53506 -6.49844" />
    <path d="M 16.49048 -6.423 L 16.57591 -6.57543" />
    <path d="M 16.58971 13.47232 L 16.58971 -5.72881 L 17.08754 -6.06109 L 16.57738 -6.57396" />
    <path d="M 14.34591 12.29276 L 16.58971 13.47232" />
    <path d="M 14.34591 -4.66793 L 14.34591 12.29276" />
    <path d="M 16.58971 -5.72881 L 16.23061 -6.08982" />
    <path d="M 17.08754 9.94405 L 17.08754 -6.06109" />
    <path d="M 0.39032 4.32724 L 0.47943 4.16824 C 0.53 4.16 0.57 4.15 0.62003 4.1431 C 0.67 4.13 0.71 4.12 0.75753 4.11168 C 0.8 4.1 0.85 4.09 0.89165 4.07415 C 0.94 4.06 0.98 4.05 1.02213 4.03069 C 1.06 4.02 1.09 4 1.12978 3.98929" />
    <path d="M -1.25275 18.67591 L -1.25275 10.51959" />
    <path d="M 0.61709 7.57349 L -1.25275 6.59052 L -18.82921 -2.64932 A 1 0.59235 180 0 0 -20.24091 -2.59947 L -22.23223 -1.27035 A 1 0.59235 180 0 0 -22.4843 -0.87717 L -22.4843 -0.07149 A 1 0.59235 180 0 0 -22.14807 0.37155 L -22.14807 -0.43413 L -2.70177 9.78868 A 1 0.59235 180 0 0 -1.29007 9.73882 L 0.70125 8.40971 A 1 0.59235 180 0 0 0.95332 8.01652 L 0.95332 8.8222" />
    <path d="M -1.25275 6.59052 L -1.25275 4.1269" />
    <path d="M 0.99106 4.68258 L 0.47943 4.16824" />
    <path d="M 0.99106 20.68772 L 0.99106 4.68258 L 1.48889 4.3503 L 1.12978 3.98929" />
    <path d="M 0.99106 20.68772 L -1.25275 18.67591 L -5.49202 14.87495" />
    <path d="M 1.48889 21.13408 L 1.48889 4.3503" />
    <path d="M 17.08754 13.14004 L 17.08754 13.12677 L 17.08754 9.94405 L 19.4112 12.02745" />
    <path d="M 17.08754 13.14004 L 16.58971 13.47232" />
    <path d="M -1.80841 -6.9982 L 4.27922 -1.53999" />
    <path d="M 6.57524 0.51864 L 7.09972 0.98889" />
    <path d="M 10.61604 4.14165 L 14.34591 7.48588" />
    <path d="M 14.34591 10.8943 L 8.62772 5.76733" />
    <path d="M 5.38802 2.86259 L 4.66936 2.21824" />
    <path d="M 1.37004 -0.73995 L -3.41362 -5.02902" />
    <path d="M -3.41362 -6.84372 L -3.41362 -5.02902" />
    <path d="M -1.80841 -6.9982 L -3.41362 -6.84372" />
    <path d="M 19.90903 11.69517 L 19.4112 12.02745" />
    <path d="M -1.31058 -7.33047 L -1.80841 -6.9982" />
    <path d="M 19.90903 11.69517 L 17.08754 9.16541" />
    <path d="M 14.34591 6.70724 L 10.84662 3.56976" />
    <path d="M 7.77647 0.81703 L 7.07307 0.18636" />
    <path d="M 4.87864 -1.78117 L 1.13081 -5.14151 L -1.31058 -7.33047 L -1.86092 -7.27751 L -1.86092 -12.32701" />
    <path d="M -1.29007 10.5445 L 0.70125 9.21539 L 0.70125 8.40971" />
    <path d="M -2.70177 10.59436 A 1 0.59235 180 0 0 -1.29007 10.5445 L -1.29007 9.73882" />
    <path d="M 0.70125 9.21539 A 1 0.59235 180 0 0 0.95332 8.8222" />
    <path d="M -22.14807 0.37155 L -2.70177 10.59436 L -2.70177 9.78868" />
    <path d="M 0.95332 8.01652 A 1 0.59235 180 0 0 0.61709 7.57349" />
    <path d="M -22.4843 -0.87717 A 1 0.59235 180 0 0 -22.14807 -0.43413" />
    <path d="M 3.31471 22.77112 L 2.81688 23.1034" />
    <path d="M -15.96133 6.26672 L -8.79196 12.69484" />
    <path d="M -6.31874 14.91234 L 2.81688 23.1034" />
    <path d="M 3.31471 22.77112 L 0.99106 20.68772" />
    <path d="M -8.62869 12.06259 L -15.96133 5.48809" />
    <path d="M -19.49471 3.89847 L -19.5101 3.89995 L -20.00793 4.23223 L -20.00793 6.04693" />
    <path d="M 18.66934 13.95831 L 19.4112 12.02745" />
    <path d="M 18.66934 13.95831 L 17.08754 13.12677" />
    <path d="M -2.91579 -7.176 L -3.41362 -6.84372" />
    <path d="M -1.86092 -7.27751 L -2.91579 -7.176" />
    <path d="M 19.16717 13.62604 L 18.66934 13.95831" />
    <path d="M 19.16717 13.62604 L 19.90903 11.69517" />
    <path d="M -0.08458 -11.39319 L -0.08458 -7.76078" />
    <path d="M 1.13081 -10.75427 L 1.13081 -5.14151" />
    <path d="M -15.96133 6.26672 L -15.96133 3.62388" />
    <path d="M -19.4509 3.98327 L -19.4509 14.32546 L -16.45916 15.8982 L -16.45916 3.36218" />
    <path d="M -17.67455 2.72325 L -17.67455 3.97973 L -18.69294 4.65946 L -19.25389 4.36457 L -20.06088 2.80263 L -20.06088 1.46877" />
    <path d="M -19.49993 3.09752 L -20.06088 2.80263" />
    <path d="M -19.49993 3.09752 L -19.49993 1.76366" />
    <path d="M -18.69294 4.65946 L -19.49993 3.09752" />
    <path d="M -15.96133 15.56592 L -16.45916 15.8982" />
    <path d="M -15.96133 15.56592 L -15.96133 9.67515 L -15.96133 6.26672" />
    <path d="M 2.57286 24.70199 L 3.31471 22.77112" />
    <path d="M 2.57286 24.70199 L 2.07503 25.03427 L 2.81688 23.1034" />
    <path d="M -0.11526 23.88284 L 2.07503 25.03427" />
    <path d="M -0.11526 23.88284 L -15.96133 9.67515" />
    <path d="M -20.00793 4.23223 L -19.4509 4.17862" />
    <path d="M -19.4509 6.54638 L -20.00793 6.04693" />
    <path d="M -1.86092 0.15416 L -1.86092 -3.63686" />
    <path d="M 1.13081 -0.95445 L 1.13081 -0.69817" />
    <path d="M 1.23087 4.09091 L 1.62864 3.82542" />
    <path d="M 1.62864 -10.49256 L 1.62864 -4.69515" />
    <path d="M 1.62864 3.82027 L 1.62864 3.82542" />
    <path d="M -0.41647 -7.53926 L -0.08458 -7.76078" />
    <path d="M -0.41647 -11.56766 L -0.41647 -7.53926" />
    <path d="M -0.97742 -7.83414 L -0.41647 -7.53926" />
    <path d="M -0.97742 -11.86255 L -0.97742 -7.83414" />
    <path d="M 17.08754 -2.39105 A 1 0.59235 180 0 0 18.29123 -2.52512 L 18.29123 -3.3308 L 20.28254 -4.65991 A 1 0.59235 180 0 0 20.53461 -5.0531 L 20.53461 -4.24742" />
    <path d="M -0.41647 -11.56766 L 8.05843 -7.11246" />
    <path d="M 9.47972 -6.3653 L 10.26855 -5.95061" />
    <path d="M 13.62449 -4.18641 L 14.34591 -3.80717" />
    <path d="M -2.56678 -12.69807 L -0.97742 -11.86255" />
    <path d="M -2.90301 -13.14111 A 1 0.59235 180 0 0 -2.56678 -12.69807 L -2.56678 -13.50375 L 8.4072 -7.73479" />
    <path d="M 20.28254 -3.85423 A 1 0.59235 180 0 0 20.53461 -4.24742" />
    <path d="M 18.29123 -2.52512 L 20.28254 -3.85423 L 20.28254 -4.65991" />
    <path d="M 9.82848 -6.98763 L 10.67719 -6.54147" />
    <path d="M 14.29975 -4.63712 L 14.34591 -4.61285" />
    <path d="M 17.08754 -3.19673 A 1 0.59235 180 0 0 18.29123 -3.3308" />
    <path d="M 1.62864 -9.41707 L 1.91196 -10.34363" />
    <path d="M -2.65094 -14.33998 A 1 0.59235 180 0 0 -2.90301 -13.94679 L -2.90301 -13.14111" />
    <path d="M -2.90301 -13.94679 A 1 0.59235 180 0 0 -2.56678 -13.50375" />
    <path d="M -0.65962 -15.66909 L -2.65094 -14.33998" />
    <path d="M 0.75209 -15.71894 A 1 0.59235 180 0 0 -0.65962 -15.66909" />
    <path d="M 20.19838 -5.49614 L 16.87147 -7.24508" />
    <path d="M 12.58051 -9.50081 L 0.75209 -15.71894" />
    <path d="M 20.53461 -5.0531 A 1 0.59235 180 0 0 20.19838 -5.49614" />
    <path d="M 10.08951 4.43822 L 9.90688 4.91355" />
    <path d="M 15.99967 -6.03652 L 15.7626 -5.6135" />
    <path d="M 1.72856 3.48879 L 1.49149 3.91182" />
    <path d="M 10.87504 3.4958 L 10.69241 3.97113" />
    <path d="M -8.50306 11.73562 L -8.68569 12.21095" />
    <path d="M 16.68278 -6.76203 L 16.53506 -6.49844" />
    <path d="M -2.34386 0.73009 L -2.58092 1.15312" />
</svg>