<svg version="1.1" xmlns="http://www.w3.org/2000/svg" viewBox="-23.478001210750165 -16.75810233854513 45.02872162358126 43.05872513636531" fill="none" stroke="black" stroke-width="0.6%" vector-effect="non-scaling-stroke">
    <path d="M -4.24151 17.03794 L -3.7429 16.70288" />
    <path d="M -3.74246 16.70327 L -1.26409 15.03782" />
    <path d="M 1.47554 13.19681 L 12.37856 5.87004 L 12.37892 5.8691 L 12.56188 5.39962 L 11.93566 4.83365" />
    <path d="M -4.05855 16.56846 L -1.26409 14.6906" />
    <path d="M 1.47554 12.84958 L 12.56188 5.39962" />
    <path d="M -4.24151 17.03794 L -4.05855 16.56846" />
    <path d="M 3.29769 23.05126 L 0.97692 20.95866 L -1.26409 18.93797 L -3.7429 16.70288" />
    <path d="M -4.24151 17.03794 L 2.79908 23.38632" />
    <path d="M 3.29769 23.05126 L 2.79908 23.38632" />
    <path d="M -7.78601 13.05728 L -7.85415 12.99583" />
    <path d="M -9.84185 11.20356 L -9.90999 11.14212" />
    <path d="M -11.8977 9.34984 L -11.96584 9.2884" />
    <path d="M -13.95354 7.49612 L -14.02168 7.43468" />
    <path d="M -5.2195 16.15532 L -4.84725 16.49176" />
    <path d="M -1.77374 -6.89211 L -1.64942 -6.78" />
    <path d="M 12.37892 5.8691 L 14.35912 7.65461" />
    <path d="M 14.35912 11.04514 L 10.22484 7.31733" />
    <path d="M -1.76126 -6.70484 L -1.8451 -6.88589 L -1.92754 -7.06391 L -3.48663 -6.79079 L -13.88632 0.19775" />
    <path d="M -1.8451 -6.88589 L -1.77374 -6.89211" />
    <path d="M -5.00755 15.71078 L -4.05855 16.56846" />
    <path d="M -5.00755 15.71078 C -4.98 15.71 -4.95 15.71 -4.92791 15.71534 C -4.9 15.72 -4.87 15.72 -4.84857 15.71804 C -4.82 15.72 -4.8 15.72 -4.76959 15.71889 C -4.74 15.72 -4.72 15.72 -4.69102 15.71791 C -4.66 15.72 -4.64 15.72 -4.61293 15.71513 C -4.59 15.71 -4.56 15.71 -4.53537 15.71058 C -4.51 15.71 -4.48 15.71 -4.45839 15.70428 C -4.43 15.7 -4.41 15.7 -4.38204 15.69626 C -4.35 15.69 -4.32 15.69 -4.28978 15.68418 C -4.26 15.68 -4.23 15.67 -4.19862 15.66962 C -4.17 15.66 -4.14 15.66 -4.10864 15.65262 C -4.08 15.65 -4.05 15.64 -4.01989 15.63325 C -3.99 15.63 -3.96 15.62 -3.93246 15.61153 C -3.9 15.6 -3.87 15.6 -3.84641 15.58751 C -3.82 15.58 -3.79 15.57 -3.76181 15.56124 C -3.73 15.55 -3.71 15.54 -3.67873 15.53277 C -3.65 15.52 -3.62 15.51 -3.59722 15.50213 C -3.57 15.49 -3.54 15.48 -3.51734 15.46937 C -3.49 15.46 -3.46 15.45 -3.43917 15.43453 C -3.41 15.42 -3.39 15.41 -3.36275 15.39765 C -3.34 15.39 -3.31 15.37 -3.28815 15.35877 C -3.26 15.35 -3.24 15.33 -3.21541 15.31793 C -3.19 15.3 -3.17 15.29 -3.1446 15.27517 C -3.12 15.26 -3.1 15.25 -3.07577 15.23052 L -1.26409 14.01308" />
    <path d="M 1.47554 12.17207 L 11.2178 5.62532 C 11.26 5.6 11.3 5.57 11.3322 5.54362 C 11.37 5.52 11.41 5.49 11.44018 5.45658 C 11.48 5.43 11.51 5.4 11.54142 5.3644 C 11.57 5.33 11.61 5.3 11.63564 5.26728 C 11.67 5.23 11.69 5.2 11.7225 5.16543 C 11.75 5.13 11.78 5.1 11.80169 5.05905 C 11.83 5.02 11.85 4.99 11.87285 4.94838 C 11.9 4.91 11.92 4.87 11.93566 4.83365" />
    <path d="M -5.18072 16.1582 L -5.00755 15.71078" />
    <path d="M 2.05815 25.30062 L 2.79908 23.38632" />
    <path d="M -0.12942 24.13627 L 2.05815 25.30062" />
    <path d="M -0.12942 24.13627 L -15.95582 9.86589 L -15.95582 6.47536 L -15.95582 6.46118 L -14.51321 7.76498 L -11.94198 6.03713" />
    <path d="M -15.95582 6.47536 L -7.67561 13.94147" />
    <path d="M -5.22045 16.15525 L -4.84725 16.49176" />
    <path d="M 2.55676 24.96556 L 3.29769 23.05126" />
    <path d="M -1.26409 18.93797 L -1.26409 10.86602" />
    <path d="M 0.60342 7.91003 L -1.26409 6.91603 L -18.81873 -2.42757 A 1 0.59806 180 0 0 -20.23055 -2.37842 L -22.22501 -1.03815 A 1 0.59806 180 0 0 -22.478 -0.64056 A 1 0.59806 180 0 0 -22.14282 -0.1938 L -2.72067 10.1438 A 1 0.59806 180 0 0 -1.30884 10.09464 L 0.68561 8.75438 A 1 0.59806 180 0 0 0.9386 8.35678 A 1 0.59806 180 0 0 0.60342 7.91003 Z" />
    <path d="M -1.26409 6.91603 L -1.26409 4.85288" />
    <path d="M 0.97692 20.95866 L 0.97692 5.73477" />
    <path d="M 2.55676 24.96556 L 2.05815 25.30062" />
    <path d="M -19.44245 6.72205 L -19.9974 6.22167" />
    <path d="M -19.9974 4.61488 L -19.9974 6.22167" />
    <path d="M -19.9974 4.61488 L -20.10707 4.37805 L -19.44245 4.26162" />
    <path d="M -19.55045 4.00401 L -20.10707 4.37805" />
    <path d="M -13.24312 0.5401 L -1.92754 -7.06391" />
    <path d="M -1.50415 -6.87762 L -12.85217 0.74818" />
    <path d="M 0.30004 -5.31744 L 0.34237 -5.59518 L -1.50415 -6.87762" />
    <path d="M -15.95582 5.3571 L -14.74646 4.54442" />
    <path d="M -10.75686 1.86343 L 0.34237 -5.59518" />
    <path d="M 19.91813 11.88242 L 19.41952 12.21748" />
    <path d="M 17.09875 10.12489 L 19.41952 12.21748" />
    <path d="M -1.27513 -7.22717 L -1.77374 -6.89211" />
    <path d="M 19.91813 11.88242 L 17.09875 9.34023" />
    <path d="M 14.35912 6.86995 L 11.98478 4.72905" />
    <path d="M 8.91549 1.96153 L 8.21901 1.33352" />
    <path d="M 2.02885 -4.24803 L 1.16323 -5.02854 L -1.27513 -7.22717 L -1.82479 -7.17926 L -1.82479 -12.19585" />
    <path d="M 14.35912 -3.09591 L 14.35912 12.44637 L 16.60014 13.63917 L 16.60014 -4.60186" />
    <path d="M -2.87835 -7.08741 L -3.26092 -6.83032" />
    <path d="M -1.82479 -7.17926 L -2.87835 -7.08741" />
    <path d="M -7.00886 15.42523 L -7.10452 15.33406 L -7.19364 15.23897 L -7.27593 15.14027 L -7.35114 15.03826 L -7.41903 14.93326 L -7.47938 14.82561 L -7.53201 14.71564 L -7.57676 14.60369 L -7.61348 14.49012 L -7.64206 14.37528 L -7.66241 14.25953 L -7.67446 14.14323 L -7.67818 14.02675 L -7.67356 13.91045 L -7.49941 13.46051" />
    <path d="M -5.18072 16.1582 L -5.3292 16.14478 L -5.4767 16.12492 L -5.62274 16.09866 L -5.76688 16.0661 L -5.90866 16.02733 L -6.04764 15.98247 L -6.18339 15.93167 L -6.31547 15.87509 L -6.44348 15.8129 L -6.56701 15.7453 L -6.68567 15.67249 L -6.7991 15.59472 L -6.90694 15.51221 L -7.00886 15.42523" />
    <path d="M 11.45602 2.66826 L 11.57882 2.78725 L 11.69047 2.91267 L 11.79039 3.04386 L 11.87804 3.18013 L 11.95296 3.32076 L 12.01477 3.46502 L 12.06313 3.61214 L 12.09779 3.76134 L 12.11857 3.91185 L 12.12536 4.06286 L 12.11812 4.21359 L 12.09689 4.36324 L 12.06179 4.51102 L 12.01299 4.65616 L 11.98067 4.73398 L 11.94439 4.81067 L 11.90422 4.8861 L 11.86022 4.96016 L 11.81245 5.03272 L 11.76099 5.10367 L 11.70592 5.17291 L 11.64733 5.24031 L 11.58531 5.30579 L 11.51996 5.36923 L 11.45137 5.43053 L 11.37967 5.4896 L 11.30495 5.54635 L 11.22734 5.60068 L 1.47554 12.15384" />
    <path d="M -3.06623 15.20588 L -3.30064 15.34593 L -3.55431 15.4642 L -3.82405 15.55919 L -4.10646 15.62972 L -4.398 15.6749 L -4.69499 15.69416 L -4.99371 15.68725 L -5.29039 15.65427 L -5.58131 15.59563 L -5.8628 15.51206 L -6.13134 15.40462 L -6.38353 15.27466 L -6.61621 15.12381 L -6.82646 14.95398 L -6.94926 14.83499 L -7.06091 14.70957 L -7.16082 14.57837 L -7.24847 14.4421 L -7.3234 14.30147 L -7.3852 14.15721 L -7.43356 14.0101 L -7.46822 13.86089 L -7.489 13.71039 L -7.49579 13.55937 L -7.48855 13.40864 L -7.46733 13.25899 L -7.43222 13.11121 L -7.38343 12.96608 L -7.39152 12.987 C -7.4 13.01 -7.41 13.02 -7.41241 13.04393 C -7.42 13.06 -7.43 13.08 -7.43126 13.10158 C -7.44 13.12 -7.44 13.14 -7.44803 13.15991 C -7.45 13.18 -7.46 13.2 -7.46269 13.21889 C -7.47 13.24 -7.47 13.26 -7.4752 13.27848 C -7.48 13.3 -7.48 13.32 -7.48551 13.33863 C -7.49 13.36 -7.49 13.38 -7.49359 13.39933 C -7.5 13.42 -7.5 13.44 -7.49941 13.46051" />
    <path d="M -1.26409 13.99485 L -3.06623 15.20588 L -3.07577 15.23052" />
    <path d="M 1.47554 21.40825 L 1.47554 5.55725" />
    <path d="M -1.30884 10.8961 L 0.68561 9.55584 A 1 0.59806 180 0 0 0.9386 9.15824" />
    <path d="M -2.72067 10.94525 A 1 0.59806 180 0 0 -1.30884 10.8961 L -1.30884 10.09464" />
    <path d="M -22.14282 0.60765 L -2.72067 10.94525 L -2.72067 10.1438" />
    <path d="M -22.478 0.1609 A 1 0.59806 180 0 0 -22.14282 0.60765 L -22.14282 -0.1938" />
    <path d="M -1.79919 4.30036 A 2 1.53441 29.48529 0 1 -2.21052 2.42246 L -1.97375 2.00371 A 2 1.53441 29.48529 0 1 -1.58682 1.59 L -1.28942 1.39014 A 20 15.34409 209.48529 0 0 12.46364 -5.34978 A 20 15.34409 209.48529 0 0 13.26566 -7.08169" />
    <path d="M -1.12218 4.99942 L -1.79919 4.30036" />
    <path d="M 1.56149 5.50402 A 2 1.53441 29.48529 0 1 -1.12218 4.99942" />
    <path d="M 12.34312 -5.14162 A 20 15.34409 209.48529 0 0 13.05129 -6.72423" />
    <path d="M 17.1847 -4.99468 L 1.56149 5.50402" />
    <path d="M 17.57163 -5.40839 A 2 1.53441 29.48529 0 1 17.1847 -4.99468" />
    <path d="M -15.95582 15.72574 L -16.45443 16.0608 L -16.45443 3.63534" />
    <path d="M -15.95582 15.72574 L -15.95582 9.86589" />
    <path d="M -15.95582 6.46118 L -15.95582 5.82508 L -14.32988 7.29456 L -12.23032 5.88366" />
    <path d="M -15.95582 5.82508 L -15.95582 3.90073" />
    <path d="M 19.1772 13.79672 L 18.67858 14.13179 L 17.09875 13.29091 L 17.09875 10.12489 L 17.09875 -4.93692" />
    <path d="M 19.1772 13.79672 L 19.91813 11.88242" />
    <path d="M 18.67858 14.13179 L 19.41952 12.21748" />
    <path d="M -0.05065 -11.25155 L -0.05065 -7.64459" />
    <path d="M 1.16323 -10.60545 L 1.16323 -5.02854" />
    <path d="M 17.09875 13.3041 L 17.09875 13.29091" />
    <path d="M 17.09875 13.3041 L 16.60014 13.63917" />
    <path d="M -1.82479 -0.65433 L -1.82479 -0.76156" />
    <path d="M 7.6958 2.41635 L 7.93021 2.2763 L 8.18388 2.15804 L 8.45362 2.06304 L 8.73603 1.99251 L 9.02756 1.94733 L 9.32456 1.92807 L 9.62327 1.93498 L 9.91996 1.96796 L 10.21088 2.0266 L 10.49237 2.11017 L 10.76091 2.21761 L 11.0131 2.34757 L 11.24578 2.49842 L 11.45602 2.66826" />
    <path d="M 8.78046 1.98388 L 8.74291 1.94994 L 8.65292 2.01041" />
    <path d="M -8.06085 13.5892 L -7.67539 13.93757" />
    <path d="M -7.87753 13.11877 L -7.49941 13.46051" />
    <path d="M -8.06085 13.5892 L -7.87753 13.11877" />
    <path d="M -7.38343 12.96608 L -7.3511 12.88825 L -7.31483 12.81156 L -7.27465 12.73613 L -7.23065 12.66207 L -7.18288 12.58951 L -7.13142 12.51856 L -7.07635 12.44933 L -7.01776 12.38192 L -6.95574 12.31644 L -6.89039 12.25301 L -6.82181 12.1917 L -6.7501 12.13263 L -6.67538 12.07589 L -6.59777 12.02155 L -5.9144 11.56233" />
    <path d="M -7.38744 12.97654 Q -7.39 12.98 -7.39152 12.987" />
    <path d="M 5.85167 5.28103 L 5.47568 5.79571" />
    <path d="M 5.42452 5.86575 A 20 14.7789 201.15905 0 0 5.47568 5.79571" />
    <path d="M 5.42452 5.86575 L 4.74437 6.7968" />
    <path d="M 4.72849 6.78776 L 4.74437 6.7968" />
    <path d="M 4.64646 6.92453 L 3.24819 8.2538" />
    <path d="M 3.20929 8.22583 L 3.24819 8.2538" />
    <path d="M 3.12566 8.36529 L 1.47554 9.47416" />
    <path d="M -2.51679 11.02923 L -2.85407 11.13123" />
    <path d="M -2.90493 11.05609 L -2.85407 11.13123" />
    <path d="M -2.99112 11.07685 A 20 14.7789 201.15905 0 0 -2.90493 11.05609" />
    <path d="M -3.04431 11.16556 L -5.28626 11.53343" />
    <path d="M -5.31019 11.48504 L -5.28626 11.53343" />
    <path d="M -5.4609 11.50212 A 20 14.7789 201.15905 0 0 -5.31019 11.48504" />
    <path d="M -5.48641 11.54466 L -5.9144 11.56233" />
    <path d="M 7.48446 2.55838 L 7.6958 2.41635" />
    <path d="M -18.68831 4.8798 L -19.49656 3.33341 L -20.05682 3.03521 L -20.05682 1.71794" />
    <path d="M -17.66831 4.19437 L -18.68831 4.8798 L -19.24856 4.5816 L -20.05682 3.03521" />
    <path d="M -17.66831 2.98924 L -17.66831 4.19437" />
    <path d="M -19.49656 3.33341 L -19.49656 2.01614" />
    <path d="M -19.44245 4.21064 L -19.44245 14.47041 L -16.45443 16.0608" />
    <path d="M -1.56242 3.88162 A 2 1.53441 29.48529 0 1 -1.97375 2.00371" />
    <path d="M -0.8854 4.58067 L -1.56242 3.88162 L -1.79919 4.30036" />
    <path d="M 1.79827 5.08528 A 2 1.53441 29.48529 0 1 -0.8854 4.58067 L -1.12218 4.99942" />
    <path d="M 17.42148 -5.41343 L 1.79827 5.08528 L 1.56149 5.50402" />
    <path d="M 17.39708 -7.70505 A 2 1.53441 29.48529 0 1 17.80841 -5.82714 A 2 1.53441 29.48529 0 1 17.42148 -5.41343 L 17.1847 -4.99468" />
    <path d="M 14.4808 -9.10791 A 2 1.53441 29.48529 0 1 16.72006 -8.4041 L 17.39708 -7.70505" />
    <path d="M -14.51321 7.76498 L -14.32988 7.29456" />
    <path d="M -8.24071 3.20267 L 0.00622 -2.33922" />
    <path d="M 1.87761 -4.24748 L 0.52585 -5.46918 L -10.54984 1.97362" />
    <path d="M -14.53944 4.65461 L -15.95582 5.6064" />
    <path d="M -7.95237 3.35614 L -0.34258 -1.7576" />
    <path d="M 1.66185 -10.34006 L 1.66185 -4.57895" />
    <path d="M -0.38306 -7.42122 L -0.05065 -7.64459" />
    <path d="M -0.38306 -11.42848 L -0.38306 -7.42122" />
    <path d="M -0.94332 -7.71942 L -0.38306 -7.42122" />
    <path d="M -0.94332 -11.72668 L -0.94332 -7.71942" />
    <path d="M 17.09875 -2.14894 A 1 0.59806 180 0 0 18.30327 -2.28313 L 18.30327 -3.08458 L 20.29773 -4.42484 A 1 0.59806 180 0 0 20.55072 -4.82244 L 20.55072 -4.02099" />
    <path d="M -0.38306 -11.42848 L 9.81713 -5.99934" />
    <path d="M 11.93921 -4.86985 L 12.11685 -4.7753" />
    <path d="M -2.5307 -12.57158 L -0.94332 -11.72668" />
    <path d="M -2.86589 -13.01833 A 1 0.59806 180 0 0 -2.5307 -12.57158 L -2.5307 -13.37303 L 10.5118 -6.43105" />
    <path d="M 20.29773 -3.62339 A 1 0.59806 180 0 0 20.55072 -4.02099" />
    <path d="M 18.30327 -2.28313 L 20.29773 -3.62339 L 20.29773 -4.42484" />
    <path d="M -7.25338 12.69936 L -7.87753 13.11877" />
    <path d="M -5.35905 11.42638 L -5.45357 11.48989" />
    <path d="M 5.85167 5.28103 L 8.52369 0.82547" />
    <path d="M 11.00148 -3.30621 L 14.90023 -9.80731 L 13.76523 -8.24534 L 10.46184 -2.73699" />
    <path d="M 8.19158 1.04865 L 4.74437 6.7968" />
    <path d="M 13.14375 -8.66391 L 13.10006 -8.59107" />
    <path d="M 13.14375 -8.66391 L 13.76523 -8.24534" />
    <path d="M 13.09705 -8.59361 L 13.6651 -8.1139 L 12.25283 -6.76131 L 9.17155 -1.62331" />
    <path d="M 4.64646 6.92453 L 8.15588 1.07263" />
    <path d="M 10.40989 -2.68589 L 13.6651 -8.1139" />
    <path d="M 7.149 1.74925 L 3.24819 8.2538" />
    <path d="M 11.68479 -7.24102 L 11.63932 -7.16522" />
    <path d="M 11.68479 -7.24102 L 12.25283 -6.76131" />
    <path d="M 11.62571 -7.17959 L 12.12926 -6.64807 L 10.46722 -5.53119 L 7.46995 -0.53329" />
    <path d="M 3.12566 8.36529 L 7.05576 1.81191" />
    <path d="M 9.0709 -1.5483 L 12.12926 -6.64807" />
    <path d="M 5.39372 2.92879 L 1.47554 9.4623" />
    <path d="M 9.96366 -6.06271 L 9.9146 -5.98089" />
    <path d="M 9.96366 -6.06271 L 10.46722 -5.53119" />
    <path d="M 9.87943 -6.02783 L 10.30869 -5.45485 L 8.42921 -4.59542 L 5.45165 0.36962" />
    <path d="M 1.47554 9.27428 L 5.20486 3.0557" />
    <path d="M 7.30424 -0.44498 L 10.30869 -5.45485" />
    <path d="M 2.92 4.59112 L 1.47554 6.99973" />
    <path d="M 7.99995 -5.16839 L 7.94642 -5.07913" />
    <path d="M 7.99995 -5.16839 L 8.42921 -4.59542" />
    <path d="M 7.9082 -5.14565 L 8.25481 -4.54237 L 6.19449 -3.95711 L 3.22036 1.00221" />
    <path d="M 1.47554 6.76196 L 2.68115 4.75162" />
    <path d="M 5.27044 0.43403 L 8.25481 -4.54237" />
    <path d="M -2.73725 10.93642 L -2.85407 11.13123" />
    <path d="M 5.84788 -4.56039 L 5.7877 -4.46004" />
    <path d="M -2.95553 11.01752 L -2.92603 11.06121" />
    <path d="M 5.84788 -4.56039 L 6.19449 -3.95711" />
    <path d="M 5.75039 -4.55023 L 6.00761 -3.92838 L 3.80654 -3.62868 L 0.82609 1.34117" />
    <path d="M -3.04431 11.16556 L -2.86585 10.86797" />
    <path d="M 3.02698 1.04177 L 6.00761 -3.92838" />
    <path d="M -1.27386 4.8428 L -2.21398 6.41045" />
    <path d="M -4.3981 10.05242 L -5.28626 11.53343" />
    <path d="M 3.54933 -4.25054 L 3.47905 -4.13335" />
    <path d="M -5.44145 11.46968 L -5.43754 11.47912" />
    <path d="M -5.35905 11.42638 L -5.32903 11.48724" />
    <path d="M 3.54933 -4.25054 L 3.80654 -3.62868" />
    <path d="M 3.44801 -4.25315 L 3.61082 -3.62484 L 1.31185 -3.61654 L -4.09953 5.40685" />
    <path d="M -5.48641 11.54466 L -4.54471 9.97439" />
    <path d="M -2.3606 6.33241 L -1.3933 4.71947" />
    <path d="M 0.62407 1.35553 L 3.61082 -3.62484" />
    <path d="M -6.30336 11.66709 L -6.06903 11.66624" />
    <path d="M -6.28809 11.59622 L -6.30336 11.66709" />
    <path d="M -6.28809 11.59622 L -7.84949 11.65986" />
    <path d="M -6.28364 9.04883 L -7.84949 11.65986" />
    <path d="M 14.97498 -9.9544 L 14.89064 -9.81377" />
    <path d="M 15.81062 -11.69535 L 14.97498 -9.9544" />
    <path d="M 14.31216 -10.30369 L 14.20292 -10.12153" />
    <path d="M 14.31216 -10.30369 L 14.97498 -9.9544" />
    <path d="M 14.27875 -10.22589 L 14.90023 -9.80731" />
    <path d="M 12.30354 -5.47738 L 12.47199 -5.38772" />
    <path d="M 17.09875 -2.95039 A 1 0.59806 180 0 0 18.30327 -3.08458" />
    <path d="M 1.66185 -9.29664 L 1.93719 -10.1935" />
    <path d="M -2.61289 -14.21738 A 1 0.59806 180 0 0 -2.86589 -13.81978 L -2.86589 -13.01833" />
    <path d="M -2.86589 -13.81978 A 1 0.59806 180 0 0 -2.5307 -13.37303" />
    <path d="M -0.61844 -15.55764 L -2.61289 -14.21738" />
    <path d="M 0.79338 -15.6068 A 1 0.59806 180 0 0 -0.61844 -15.55764" />
    <path d="M 20.21554 -5.2692 L 17.9649 -6.46712" />
    <path d="M 12.80737 -9.21225 L 0.79338 -15.6068" />
    <path d="M 20.55072 -4.82244 A 1 0.59806 180 0 0 20.21554 -5.2692" />
    <path d="M 5.75039 -4.55023 L 3.54933 -4.25054" />
    <path d="M 13.05276 -8.55119 L 15.1478 -12.04464 L 15.81062 -11.69535" />
    <path d="M 15.1478 -12.04464 L 14.31216 -10.30369" />
    <path d="M 15.16727 -12.12842 L 12.98046 -8.48194" />
    <path d="M 15.85853 -11.85523 L 15.77417 -11.71456" />
    <path d="M 15.16727 -12.12842 L 15.85853 -11.85523" />
    <path d="M 16.37855 -13.74127 L 15.85853 -11.85523" />
    <path d="M 14.27875 -10.22589 L 13.14375 -8.66391" />
    <path d="M 13.09705 -8.59361 L 11.68479 -7.24102" />
    <path d="M 11.62571 -7.17959 L 9.96366 -6.06271" />
    <path d="M 9.87943 -6.02783 L 7.99995 -5.16839" />
    <path d="M 7.9082 -5.14565 L 5.84788 -4.56039" />
    <path d="M -9.93179 11.26399 L -8.16709 12.8589 L -6.28809 11.59622" />
    <path d="M -6.95008 9.2603 L -9.93179 11.26399" />
    <path d="M 8.45335 1.69006 L 8.16271 1.42739" />
    <path d="M 7.70266 2.19452 L 8.45335 1.69006" />
    <path d="M -7.90691 11.48083 L -7.84949 11.65986" />
    <path d="M -8.35041 13.32932 L -7.11807 12.5012" />
    <path d="M 8.28639 2.1185 L 8.45335 1.69006" />
    <path d="M -8.35041 13.32932 L -8.16709 12.8589" />
    <path d="M 3.44801 -4.25315 L 1.14904 -4.24485 L 1.31185 -3.61654" />
    <path d="M 1.14904 -4.24485 L -4.50857 5.18913" />
    <path d="M -6.69269 8.83111 L -8.02 11.04438 L -7.90691 11.48083" />
    <path d="M 15.68729 -14.01447 L 15.16727 -12.12842" />
    <path d="M 11.56317 -7.13756 L 15.68729 -14.01447 L 16.37855 -13.74127" />
    <path d="M -10.11512 11.73442 L -9.93179 11.26399" />
    <path d="M -10.11512 11.73442 L -8.35041 13.32932" />
    <path d="M -10.40468 11.47454 L -10.22135 11.00412 L -6.8573 8.74349" />
    <path d="M -10.40468 11.47454 L -6.84236 9.08069" />
    <path d="M -12.16938 9.87964 L -11.98606 9.40922 L -10.22135 11.00412" />
    <path d="M -3.70019 3.84116 L -5.17682 4.83345" />
    <path d="M -9.16643 7.51444 L -11.98606 9.40922" />
    <path d="M -12.16938 9.87964 L -10.40468 11.47454" />
    <path d="M -12.45894 9.61976 L -12.27562 9.14934 L -9.54381 7.31358" />
    <path d="M -12.45894 9.61976 L -9.25547 7.46705" />
    <path d="M -5.26587 4.78605 L -3.59247 3.66154" />
    <path d="M -5.5542 4.63259 L -3.24367 3.07992" />
    <path d="M -14.22365 8.02486 L -14.04032 7.55444 L -12.27562 9.14934" />
    <path d="M -0.4503 -1.57798 L -7.86333 3.40353" />
    <path d="M -11.85294 6.08452 L -14.04032 7.55444" />
    <path d="M -14.22365 8.02486 L -12.45894 9.61976" />
    <path d="M 11.22734 5.60068 L 11.2178 5.62532" />
    <path d="M 0.68561 9.55584 L 0.68561 8.75438" />
    <path d="M 12.01299 4.65616 L 11.94205 4.83943" />
    <path d="M 0.9386 8.35678 L 0.9386 9.15824" />
    <path d="M -22.478 -0.64056 L -22.478 0.1609" />
    <path d="M 17.57163 -5.40839 L 17.80841 -5.82714" />
</svg>