<svg version="1.1" xmlns="http://www.w3.org/2000/svg" viewBox="-23.47800121075016 -16.706528279494925 45.02872162358126 43.148018331236734" fill="none" stroke="black" stroke-width="0.6%" vector-effect="non-scaling-stroke">
    <path d="M 18.30327 -2.16369 L 20.29773 -3.51139 A 1 0.60138 180 0 0 20.55072 -3.9112" />
    <path d="M 18.30327 -2.96266 L 20.29773 -4.31036 A 1 0.60138 180 0 0 20.55072 -4.71017 A 1 0.60138 180 0 0 20.21554 -5.1594 L 17.96401 -6.36445" />
    <path d="M 17.09875 -2.02876 A 1 0.60138 180 0 0 18.30327 -2.16369 L 18.30327 -2.96266" />
    <path d="M 17.09875 -2.82772 A 1 0.60138 180 0 0 18.30327 -2.96266" />
    <path d="M -0.38306 -11.35981 L 9.6734 -5.97746" />
    <path d="M 11.84871 -4.8132 L 12.1367 -4.65907" />
    <path d="M -2.5307 -12.50925 L -0.94332 -11.65966 L -0.94332 -7.66484 L -0.38306 -7.36498 L -0.05065 -7.5896" />
    <path d="M -2.86589 -12.95848 A 1 0.60138 180 0 0 -2.5307 -12.50925 L -2.5307 -13.30822 L 10.38783 -6.39405" />
    <path d="M 12.71882 -9.17174 L 0.79338 -15.55438 A 1 0.60138 180 0 0 -0.61844 -15.50496 L -2.61289 -14.15726 A 1 0.60138 180 0 0 -2.86589 -13.75745 A 1 0.60138 180 0 0 -2.5307 -13.30822" />
    <path d="M 12.21305 -5.41717 L 12.48459 -5.27184" />
    <path d="M -0.38306 -11.35981 L -0.38306 -7.36498" />
    <path d="M -0.05065 -11.1819 L -0.05065 -7.5896" />
    <path d="M -1.82479 -7.28379 L -1.82479 -12.13144" />
    <path d="M -1.42893 -7.35109 L -1.82479 -7.28379 L -2.98802 -7.086 L -13.93558 0.31153" />
    <path d="M -1.34649 -7.17325 L -1.42893 -7.35109" />
    <path d="M -1.27513 -7.17912 L -1.34649 -7.17325" />
    <path d="M -1.14984 -7.06592 L -1.27513 -7.17912 L -1.77374 -6.84219 L -1.64846 -6.729" />
    <path d="M 0.84098 -5.87647 L -1.00554 -7.16344 L -12.89326 0.86939" />
    <path d="M 0.79825 -5.59716 L 0.84098 -5.87647" />
    <path d="M 1.16323 -5.62434 L 1.02446 -5.75001 L -10.59327 2.10037" />
    <path d="M 1.16323 -10.53221 L 1.16323 -5.62434" />
    <path d="M 1.66185 -10.26535 L 1.66185 -5.17281" />
    <path d="M 1.66185 -9.24648 L 1.93081 -10.12139" />
    <path d="M -1.82479 -0.5781 L -1.82479 -0.68993" />
    <path d="M -13.28449 0.66 L -1.42893 -7.35109" />
    <path d="M -19.56007 4.11214 L -20.10707 4.48176 L -19.44245 4.36875" />
    <path d="M -1.8451 -6.83632 L -1.76032 -6.65341" />
    <path d="M -1.8451 -6.83632 L -1.34649 -7.17325" />
    <path d="M -1.77374 -6.84219 L -1.8451 -6.83632" />
    <path d="M -15.95582 5.47353 L -14.78397 4.68169" />
    <path d="M -10.80009 1.98968 L 0.84098 -5.87647" />
    <path d="M -14.51321 7.88394 L -11.98843 6.17789" />
    <path d="M -8.00456 3.48589 L -0.44907 -1.61954" />
    <path d="M -15.95582 6.57755 L -14.51321 7.88394 L -14.32988 7.41583 L -12.27271 6.02574" />
    <path d="M -14.57715 4.79237 L -15.95582 5.72397" />
    <path d="M -8.28883 3.33374 L -0.09851 -2.20066" />
    <path d="M 2.65127 -4.27681 L 1.16323 -5.62434" />
    <path d="M -15.95582 5.94342 L -14.32988 7.41583" />
    <path d="M 19.1772 13.87373 L 19.91813 11.96878 L 19.41952 12.30571" />
    <path d="M 19.91813 11.96878 L 17.09875 9.4215" />
    <path d="M 14.35912 6.94627 L 12.87754 5.60768 L 13.0605 5.14049 L 12.5786 4.7041" />
    <path d="M -19.9974 4.71835 L -20.10707 4.48176" />
    <path d="M -19.44245 6.82154 L -19.9974 6.32015" />
    <path d="M -19.9974 4.71835 L -19.9974 6.32015" />
    <path d="M -15.95582 5.94342 L -15.95582 4.0545" />
    <path d="M -15.95582 6.59168 L -15.95582 6.57755 L -15.95582 5.94342" />
    <path d="M -1.26409 19.07809 L -3.7429 16.83851" />
    <path d="M -9.83916 11.3306 L -9.90997 11.26663" />
    <path d="M -11.89499 9.47318 L -11.9658 9.4092" />
    <path d="M -13.95082 7.61575 L -14.02164 7.55178" />
    <path d="M 12.37892 5.9446 L 12.37856 5.94554" />
    <path d="M 12.37892 5.9446 L 14.35912 7.73369" />
    <path d="M 14.35912 11.11369 L 10.23905 7.39125" />
    <path d="M -15.95582 6.59168 L -8.24614 13.55729" />
    <path d="M -5.40853 16.12104 L -4.84725 16.62816" />
    <path d="M -5.40645 16.12176 L -4.84725 16.62816" />
    <path d="M -3.74247 16.8389 L -1.26409 15.16421" />
    <path d="M 1.47554 13.31297 L 12.37856 5.94554" />
    <path d="M 18.67858 14.21065 L 17.09875 13.36511 L 17.09875 10.20892 L 19.41952 12.30571" />
    <path d="M 19.1772 13.87373 L 18.67858 14.21065 L 19.41952 12.30571" />
    <path d="M 12.37892 5.9446 L 12.87754 5.60768" />
    <path d="M -4.24151 17.17544 L -3.7429 16.83851" />
    <path d="M -4.05855 16.70825 L -1.26409 14.81997" />
    <path d="M 1.47554 12.96873 L 13.0605 5.14049" />
    <path d="M -4.24151 17.17544 L -4.05855 16.70825" />
    <path d="M -4.55245 16.26099 L -4.05855 16.70825" />
    <path d="M 12.42688 5.04548 L 12.43421 5.03333 L 12.44138 5.02111 L 12.44839 5.0088 L 12.45523 4.99642 L 12.46192 4.98396 L 12.46844 4.97142 L 12.47479 4.95881 L 12.48098 4.94612 L 12.48701 4.93336 L 12.49287 4.92053 L 12.49857 4.90763 L 12.50409 4.89467 L 12.50946 4.88163 L 12.51465 4.86853 L 12.51477 4.86821 L 12.51489 4.8679 L 12.51501 4.86759 L 12.51513 4.86728 L 12.51525 4.86697 L 12.51537 4.86666 L 12.51549 4.86635 L 12.51561 4.86604 L 12.51573 4.86573 L 12.51585 4.86542 L 12.51597 4.86511 L 12.51609 4.8648 L 12.51621 4.86449 L 12.51633 4.86417" />
    <path d="M 12.0632 5.42005 L 12.0952 5.39777 L 12.12634 5.37473 L 12.15661 5.35097 L 12.18598 5.32648 L 12.21443 5.30129 L 12.24196 5.27541 L 12.26854 5.24886 L 12.29416 5.22165 L 12.31881 5.19379 L 12.34246 5.16531 L 12.36511 5.13622 L 12.38673 5.10654 L 12.40733 5.07629 L 12.42688 5.04548" />
    <path d="M -3.56001 15.97704 L -1.26409 14.42563" />
    <path d="M 1.47554 12.5744 L 12.0632 5.42005" />
    <path d="M -4.08663 16.20406 L -4.04482 16.19341 L -4.00356 16.18186 L -3.96288 16.16944 L -3.92279 16.15614 L -3.88333 16.14197 L -3.84452 16.12695 L -3.80638 16.11108 L -3.76893 16.09436 L -3.7322 16.07682 L -3.6962 16.05846 L -3.66096 16.03929 L -3.62651 16.01932 L -3.59285 15.99856 L -3.56001 15.97704" />
    <path d="M -4.32894 16.24693 L -4.31118 16.24481 L -4.29349 16.24255 L -4.27586 16.24014 L -4.25829 16.23758 L -4.24079 16.23488 L -4.22337 16.23203 L -4.20601 16.22904 L -4.18872 16.2259 L -4.17151 16.22262 L -4.15438 16.2192 L -4.13732 16.21563 L -4.12034 16.21191 L -4.10344 16.20806 L -4.08663 16.20406" />
    <path d="M -4.55245 16.26099 L -4.53625 16.26073 L -4.52007 16.26036 L -4.50394 16.25987 L -4.48783 16.25926 L -4.47176 16.25854 L -4.45573 16.25771 L -4.43974 16.25676 L -4.42378 16.2557 L -4.40787 16.25453 L -4.39199 16.25323 L -4.37616 16.25183 L -4.36038 16.25031 L -4.34463 16.24868 L -4.32894 16.24693" />
    <path d="M 12.16233 2.7771 A 2 1.48309 21.25372 0 1 12.69667 4.40056 A 2 1.48309 21.25372 0 1 12.24531 4.95185 L 1.47554 12.22925" />
    <path d="M -7.71517 14.32368 A 2 1.48309 21.25372 0 1 -8.3014 12.87538 L -8.29975 12.87114" />
    <path d="M -6.30255 15.59997 L -7.71517 14.32368" />
    <path d="M -4.55289 16.26212 A 2 1.48309 21.25372 0 1 -6.30255 15.59997" />
    <path d="M -19.44245 4.33578 L -19.44245 14.55104 L -16.45443 16.15027 L -16.45443 3.78763" />
    <path d="M -0.12942 24.27067 L -15.95582 9.97168 L -15.95582 6.59168" />
    <path d="M -1.30884 11.08869 L 0.68561 9.74099 A 1 0.60138 180 0 0 0.9386 9.34118" />
    <path d="M -2.72067 11.13812 A 1 0.60138 180 0 0 -1.30884 11.08869 L -1.30884 10.28973 L 0.68561 8.94203 A 1 0.60138 180 0 0 0.9386 8.54222 L 0.9386 9.34118" />
    <path d="M -22.14282 0.74313 L -2.72067 11.13812 L -2.72067 10.33915 A 1 0.60138 180 0 0 -1.30884 10.28973" />
    <path d="M -22.478 0.2939 A 1 0.60138 180 0 0 -22.14282 0.74313 L -22.14282 -0.05583 L -2.72067 10.33915" />
    <path d="M -15.95582 15.81334 L -16.45443 16.15027" />
    <path d="M -15.95582 15.81334 L -15.95582 9.97168" />
    <path d="M 3.29769 23.19962 L 0.97692 21.10283 L 0.97692 5.9287" />
    <path d="M 0.97692 21.10283 L -1.26409 19.07809 L -1.26409 11.05845" />
    <path d="M -4.24151 17.17544 L 2.79908 23.53654" />
    <path d="M 3.29769 23.19962 L 2.79908 23.53654" />
    <path d="M -1.26409 7.09347 L -1.26409 5.04799" />
    <path d="M 14.35912 -2.9514 L 14.35912 12.51577 L 16.60014 13.71519 L 16.60014 -4.46571" />
    <path d="M -0.12942 24.27067 L 2.05815 25.44149 L 2.79908 23.53654" />
    <path d="M -4.55289 16.26212 L -4.55245 16.26099" />
    <path d="M -8.35041 13.4594 L -8.28792 13.41717" />
    <path d="M -10.11512 11.86132 L -8.35041 13.4594 L -8.30415 13.34126" />
    <path d="M -10.40468 11.60091 L -7.06145 9.34182" />
    <path d="M -12.16938 10.00283 L -10.40468 11.60091 L -10.22135 11.1328 L -6.91058 8.89562" />
    <path d="M -12.45894 9.74243 L -9.30737 7.61283" />
    <path d="M -5.32349 4.92083 L -3.75526 3.86114" />
    <path d="M -14.22365 8.14435 L -12.45894 9.74243 L -12.27562 9.27431 L -9.59164 7.46068" />
    <path d="M 17.09875 13.37826 L 17.09875 13.36511" />
    <path d="M 17.09875 10.20892 L 17.09875 -4.80264" />
    <path d="M -1.26409 14.08048 L -3.3779 15.50883 L -3.56001 15.97704" />
    <path d="M -3.3779 15.50883 A 2 1.48309 21.25372 0 1 -6.12015 15.13102 L -6.30255 15.59997" />
    <path d="M 5.99204 4.8954 L 4.88475 6.41802" />
    <path d="M 4.86949 6.40933 L 4.88475 6.41802" />
    <path d="M 4.78684 6.54634 L 3.38856 7.88219" />
    <path d="M 3.35027 7.85461 L 3.38856 7.88219" />
    <path d="M 3.26604 7.99424 L 1.604 9.11732" />
    <path d="M 1.53139 9.05172 L 1.604 9.11732" />
    <path d="M -3.22799 10.86659 L -5.14589 11.18502" />
    <path d="M -5.23277 11.0088 L -5.14589 11.18502" />
    <path d="M -5.34603 11.19656 L -7.00543 11.26758" />
    <path d="M -7.61575 11.67998 L -7.00543 11.26758" />
    <path d="M -7.53276 13.85473 A 2 1.48309 21.25372 0 1 -8.0671 12.23127 A 2 1.48309 21.25372 0 1 -7.61575 11.67998" />
    <path d="M -6.12015 15.13102 L -7.53276 13.85473 L -7.71517 14.32368" />
    <path d="M 10.74972 1.50081 L 12.16233 2.7771" />
    <path d="M 8.71797 0.86046 A 2 1.48309 21.25372 0 1 10.74972 1.50081" />
    <path d="M -9.93179 11.3932 L -8.29975 12.87114" />
    <path d="M -10.11512 11.86132 L -9.93179 11.3932" />
    <path d="M -8.2478 12.69585 L -8.25246 12.70804 L -8.25697 12.72028 L -8.26134 12.73258 L -8.26556 12.74493 L -8.26964 12.75733 L -8.27357 12.76978 L -8.27736 12.78229 L -8.281 12.79484 L -8.28449 12.80744 L -8.28784 12.82009 L -8.29104 12.83279 L -8.29409 12.84553 L -8.29699 12.85831 L -8.29975 12.87114" />
    <path d="M -17.66831 3.13795 L -17.66831 4.31508 L -18.68831 5.00432 L -19.24856 4.70446 L -20.05682 3.16757 L -20.05682 1.85959" />
    <path d="M 2.55676 25.10456 L 2.05815 25.44149" />
    <path d="M 0.9386 8.54222 A 1 0.60138 180 0 0 0.60342 8.09299 L -1.26409 7.09347 L -18.81873 -2.302 A 1 0.60138 180 0 0 -20.23055 -2.25257 L -22.22501 -0.90487 A 1 0.60138 180 0 0 -22.478 -0.50506 L -22.478 0.2939" />
    <path d="M -22.478 -0.50506 A 1 0.60138 180 0 0 -22.14282 -0.05583" />
    <path d="M -19.49656 3.46742 L -20.05682 3.16757" />
    <path d="M -19.49656 3.46742 L -19.49656 2.15944" />
    <path d="M -18.68831 5.00432 L -19.49656 3.46742" />
    <path d="M 2.55676 25.10456 L 3.29769 23.19962" />
    <path d="M 1.47554 21.55332 L 1.47554 5.7498" />
    <path d="M -1.79919 4.49472 A 2 1.53903 29.62605 0 1 -2.2081 2.60758 L -1.97133 2.19122 A 2 1.53903 29.62605 0 1 -1.58682 1.77988 L -1.28942 1.57892 A 20 15.39029 209.62605 0 0 12.43941 -5.16195 A 20 15.39029 209.62605 0 0 13.43889 -7.44924" />
    <path d="M -1.12218 5.19472 L -1.79919 4.49472" />
    <path d="M 1.56149 5.69627 A 2 1.53903 29.62605 0 1 -1.12218 5.19472" />
    <path d="M 12.31891 -4.95497 A 20 15.39029 209.62605 0 0 13.2179 -7.0829" />
    <path d="M 17.1847 -4.86072 L 1.56149 5.69627" />
    <path d="M 17.56921 -5.27206 A 2 1.53903 29.62605 0 1 17.1847 -4.86072" />
    <path d="M 17.09875 13.37826 L 16.60014 13.71519" />
    <path d="M -7.17533 9.53059 L -9.93179 11.3932" />
    <path d="M -12.16938 10.00283 L -11.98606 9.53472 L -10.22135 11.1328" />
    <path d="M -3.86914 4.04992 L -5.23114 4.97025" />
    <path d="M -9.21502 7.66226 L -11.98606 9.53472" />
    <path d="M -5.60776 4.76868 L -3.4047 3.28002" />
    <path d="M -14.22365 8.14435 L -14.04032 7.67623 L -12.27562 9.27431" />
    <path d="M -0.56295 -1.43076 L -7.91221 3.53531" />
    <path d="M -11.89609 6.22732 L -14.04032 7.67623" />
    <path d="M 13.00326 -8.56102 L 15.1478 -12.11602 L 14.31216 -10.3685 L 14.19641 -10.17662" />
    <path d="M 15.1478 -12.11602 L 15.81062 -11.76688 L 14.97498 -10.01936 L 14.89005 -9.87856" />
    <path d="M 14.31216 -10.3685 L 14.97498 -10.01936" />
    <path d="M 14.27875 -10.29041 L 14.90023 -9.87171 L 13.76523 -8.30316 L 10.18583 -2.36958" />
    <path d="M 5.99204 4.8954 L 8.22526 1.19339" />
    <path d="M 10.56386 -2.6833 L 10.83863 -3.13879" />
    <path d="M 10.91136 -3.25935 L 11.33902 -3.96828" />
    <path d="M 11.41174 -4.08884 L 14.90023 -9.87171" />
    <path d="M 10.11226 -2.24763 L 10.11068 -2.245" />
    <path d="M 7.90658 1.40873 L 4.88475 6.41802" />
    <path d="M 10.79735 -3.30506 A 0.07031 0.00288 123.96891 0 1 10.81361 -3.3252" />
    <path d="M 10.73504 -3.20858 A 0.07031 0.00288 123.96891 0 1 10.79735 -3.30506" />
    <path d="M 11.36485 -4.08933 A 0.07031 0.00288 123.96891 0 1 11.38111 -4.10948" />
    <path d="M 11.30254 -3.99285 A 0.07031 0.00288 123.96891 0 1 11.36485 -4.08933" />
    <path d="M 13.14375 -8.72186 L 13.09978 -8.64897" />
    <path d="M 13.14375 -8.72186 L 13.76523 -8.30316" />
    <path d="M 13.09705 -8.65127 L 13.6651 -8.17115 L 12.25283 -6.81211 L 8.90774 -1.26695" />
    <path d="M 4.78684 6.54634 L 7.87197 1.43212" />
    <path d="M 10.06492 -2.20313 L 10.09868 -2.25911" />
    <path d="M 10.17225 -2.38106 L 13.6651 -8.17115" />
    <path d="M 6.87187 2.10791 L 3.38856 7.88219" />
    <path d="M 9.35426 -1.76164 A 0.07031 0.00904 130.20493 0 1 9.37663 -1.77717" />
    <path d="M 9.28585 -1.66977 A 0.07031 0.00904 130.20493 0 1 9.35426 -1.76164" />
    <path d="M 10.0604 -2.44116 A 0.07031 0.00904 130.20493 0 1 10.08276 -2.45669" />
    <path d="M 9.99198 -2.34929 A 0.07031 0.00904 130.20493 0 1 10.0604 -2.44116" />
    <path d="M 11.68479 -7.29223 L 11.63905 -7.21642" />
    <path d="M 11.68479 -7.29223 L 12.25283 -6.81211" />
    <path d="M 11.62571 -7.23052 L 12.12926 -6.69833 L 10.46722 -5.57524 L 7.25517 -0.25062" />
    <path d="M 3.26604 7.99424 L 6.77914 2.17057" />
    <path d="M 8.81149 -1.19846 L 12.12926 -6.69833" />
    <path d="M 5.11709 3.29366 L 1.604 9.11732" />
    <path d="M 7.63109 -0.46578 A 0.07031 0.01503 136.58375 0 1 7.65914 -0.47594" />
    <path d="M 7.591 -0.43196 A 0.07031 0.01503 136.58375 0 1 7.63109 -0.46578" />
    <path d="M 8.46212 -1.02732 A 0.07031 0.01503 136.58375 0 1 8.49016 -1.03748" />
    <path d="M 8.38802 -0.94083 A 0.07031 0.01503 136.58375 0 1 8.46212 -1.02732" />
    <path d="M 9.96366 -6.10743 L 9.91433 -6.02565" />
    <path d="M 9.96366 -6.10743 L 10.46722 -5.57524" />
    <path d="M 9.87943 -6.07231 L 10.30869 -5.49841 L 8.42921 -4.63314 L 5.26618 0.61023" />
    <path d="M 1.47554 9.14431 L 4.92772 3.42162" />
    <path d="M 7.09247 -0.16688 L 10.30869 -5.49841" />
    <path d="M 2.63608 4.97014 L 1.47554 6.89397" />
    <path d="M 7.99995 -5.20704 L 7.94616 -5.11787" />
    <path d="M 7.99995 -5.20704 L 8.42921 -4.63314" />
    <path d="M 7.9082 -5.18407 L 8.25481 -4.57963 L 6.19449 -3.98902 L 3.0542 1.21664" />
    <path d="M 1.47554 6.65838 L 2.39616 5.13226" />
    <path d="M 5.08679 0.67199 L 8.25481 -4.57963" />
    <path d="M 5.84788 -4.59347 L 5.78746 -4.4933" />
    <path d="M 5.84788 -4.59347 L 6.19449 -3.98902" />
    <path d="M 5.75039 -4.5831 L 6.00761 -3.95988 L 3.80654 -3.65543 L 0.67394 1.53749" />
    <path d="M 2.86207 1.25447 L 6.00761 -3.95988" />
    <path d="M -1.37474 4.93358 L -2.33267 6.52155" />
    <path d="M -4.53259 10.16835 L -5.14589 11.18502" />
    <path d="M 3.54933 -4.27865 L 3.47884 -4.16181" />
    <path d="M 3.54933 -4.27865 L 3.80654 -3.65543" />
    <path d="M 3.44801 -4.28109 L 3.61082 -3.65123 L 1.31185 -3.63886 L -4.21094 5.51628" />
    <path d="M -5.34603 11.19656 L -4.67863 10.09019" />
    <path d="M -2.47871 6.44339 L -1.49372 4.81057" />
    <path d="M 0.47285 1.55059 L 3.61082 -3.65123" />
    <path d="M -7.85719 11.56067 L -7.43582 11.5584" />
    <path d="M -6.41086 9.16308 L -7.85719 11.56067" />
    <path d="M -7.13662 11.31584 A 0.07031 0.03499 165.50696 0 1 -7.0958 11.32864" />
    <path d="M -7.22772 11.37161 A 0.07031 0.03499 165.50696 0 1 -7.13662 11.31584" />
    <path d="M 16.37855 -13.81979 L 15.85853 -11.92731 L 15.77354 -11.78641" />
    <path d="M 15.16727 -12.20009 L 12.92879 -8.48935" />
    <path d="M 15.16727 -12.20009 L 15.85853 -11.92731" />
    <path d="M -8.02 10.9308 L -7.85719 11.56067" />
    <path d="M -1.56242 4.07836 A 2 1.53903 29.62605 0 1 -1.97133 2.19122" />
    <path d="M -0.8854 4.77837 L -1.56242 4.07836 L -1.79919 4.49472" />
    <path d="M 1.79827 5.27991 A 2 1.53903 29.62605 0 1 -0.8854 4.77837 L -1.12218 5.19472" />
    <path d="M 17.42148 -5.27708 L 1.79827 5.27991 L 1.56149 5.69627" />
    <path d="M 17.39708 -7.57555 A 2 1.53903 29.62605 0 1 17.80598 -5.68841 A 2 1.53903 29.62605 0 1 17.42148 -5.27708 L 17.1847 -4.86072" />
    <path d="M 14.33172 -8.92929 A 2 1.53903 29.62605 0 1 16.72006 -8.27556 L 17.39708 -7.57555" />
    <path d="M 14.27875 -10.29041 L 13.14375 -8.72186" />
    <path d="M 13.09705 -8.65127 L 11.68479 -7.29223" />
    <path d="M 11.62571 -7.23052 L 9.96366 -6.10743" />
    <path d="M 9.87943 -6.07231 L 7.99995 -5.20704" />
    <path d="M 7.9082 -5.18407 L 5.84788 -4.59347" />
    <path d="M 5.75039 -4.5831 L 3.54933 -4.27865" />
    <path d="M 1.14904 -4.26873 L -4.62124 5.29668" />
    <path d="M -6.82116 8.94348 L -8.02 10.9308" />
    <path d="M 3.44801 -4.28109 L 1.14904 -4.26873 L 1.31185 -3.63886" />
    <path d="M 15.68729 -14.09257 L 16.37855 -13.81979" />
    <path d="M 15.68729 -14.09257 L 15.16727 -12.20009" />
    <path d="M 11.49416 -7.14163 L 15.68729 -14.09257" />
    <path d="M 20.29773 -3.51139 L 20.29773 -4.31036" />
    <path d="M 12.24531 4.95185 L 12.0632 5.42005" />
    <path d="M 0.68561 9.74099 L 0.68561 8.94203" />
    <path d="M 20.55072 -4.71017 L 20.55072 -3.9112" />
    <path d="M -2.86589 -13.75745 L -2.86589 -12.95848" />
    <path d="M 12.51465 4.86853 L 12.69667 4.40056" />
    <path d="M -8.2478 12.69585 L -8.0671 12.23127" />
    <path d="M 17.56921 -5.27206 L 17.80598 -5.68841" />
    <path d="M 12.29002 -4.90673 L 11.99794 -5.06058" />
    <path d="M 12.21661 -4.78645 L 11.92518 -4.93996" />
    <path d="M 12.72247 -5.77278 L 12.49868 -5.89066" />
    <path d="M 12.66426 -5.6445 L 12.42592 -5.77005" />
    <path d="M 11.02697 -3.18146 L 10.81361 -3.3252" />
    <path d="M 10.93267 -3.07543 L 10.73504 -3.20858" />
    <path d="M 11.63835 -3.93617 L 11.38111 -4.10948" />
    <path d="M 11.55354 -3.82375 L 11.30254 -3.99285" />
    <path d="M 9.47243 -1.6962 L 9.37663 -1.77717" />
    <path d="M 9.36017 -1.60695 L 9.28585 -1.66977" />
    <path d="M 10.21663 -2.34354 L 10.08276 -2.45669" />
    <path d="M 10.11293 -2.24707 L 9.99198 -2.34929" />
    <path d="M 7.66268 -0.4722 L 7.65914 -0.47594" />
    <path d="M 8.5242 -1.00151 L 8.49016 -1.03748" />
    <path d="M 8.40495 -0.92293 L 8.38802 -0.94083" />
    <path d="M -7.21756 11.41092 L -7.22772 11.37161" />
    <path d="M 13.1508 -6.8752 L 13.10379 -6.89375" />
    <path d="M 13.10554 -6.74188 L 13.03013 -6.77164" />
</svg>