<svg version="1.1" xmlns="http://www.w3.org/2000/svg" viewBox="-23.67781910263844 -16.659689976943547 45.07071970513954 43.27330927013564" fill="none" stroke="black" stroke-width="0.6%" vector-effect="non-scaling-stroke">
    <path d="M -1.61882 11.31807 L 0.3893 9.96785 A 1 0.60581 180 0 0 0.64638 9.56233" />
    <path d="M -1.61882 10.52246 L 0.3893 9.17224 A 1 0.60581 180 0 0 0.64638 8.76672 A 1 0.60581 180 0 0 0.31575 8.31665 L -1.54156 7.30286 L -1.54156 5.295" />
    <path d="M -3.03112 11.36263 A 1 0.60581 180 0 0 -1.61882 11.31807 L -1.61882 10.52246" />
    <path d="M -3.03112 10.56702 A 1 0.60581 180 0 0 -1.61882 10.52246" />
    <path d="M -22.34719 0.81922 L -3.03112 11.36263 L -3.03112 10.56702" />
    <path d="M -22.67782 0.36915 A 1 0.60581 180 0 0 -22.34719 0.81922 L -22.34719 0.02362 L -3.03112 10.56702" />
    <path d="M -1.54156 7.30286 L -19.00032 -2.22675 A 1 0.60581 180 0 0 -20.41262 -2.1822 L -22.42074 -0.83197 A 1 0.60581 180 0 0 -22.67782 -0.42646 A 1 0.60581 180 0 0 -22.34719 0.02362" />
    <path d="M -1.54156 19.23712 L -1.54156 11.26613" />
    <path d="M 0.68721 21.27552 L 0.68721 6.16797" />
    <path d="M 0.68721 21.27552 L -1.54156 19.23712 L -4.64968 16.3945" />
    <path d="M -16.15919 6.66484 L -16.15919 4.19686" />
    <path d="M -19.63292 4.43596 L -19.63292 14.56325 L -16.66122 16.18531 L -16.66122 3.92283" />
    <path d="M -17.86847 3.26387 L -17.86847 4.38786 L -18.89546 5.07838 L -19.45265 4.77424 L -20.26644 3.24712 L -20.26644 1.95497" />
    <path d="M -19.70925 3.55126 L -20.26644 3.24712" />
    <path d="M -19.70925 3.55126 L -19.70925 2.25911" />
    <path d="M -18.89546 5.07838 L -19.70925 3.55126" />
    <path d="M -16.15919 15.84776 L -16.66122 16.18531" />
    <path d="M -16.15919 15.84776 L -16.15919 10.03064 L -16.15919 6.66484 L -7.92442 14.1962" />
    <path d="M -2.08705 4.72486 A 2 1.54824 29.73447 0 1 -2.48497 2.83274 L -2.24949 2.42048 A 2 1.54824 29.73447 0 1 -1.85946 2.00492 L -1.56002 1.80358 A 20 15.48244 209.73447 0 0 12.26257 -4.97587 A 20 15.48244 209.73447 0 0 13.07736 -6.71047" />
    <path d="M -1.41373 5.42862 L -2.08705 4.72486" />
    <path d="M 1.27166 5.93599 A 2 1.54824 29.73447 0 1 -1.41373 5.42862" />
    <path d="M 12.14279 -4.7709 A 20 15.48244 209.73447 0 0 12.86491 -6.35997" />
    <path d="M 17.00194 -4.64076 L 1.27166 5.93599" />
    <path d="M 17.39197 -5.05632 A 2 1.54824 29.73447 0 1 17.00194 -4.64076" />
    <path d="M 1.18924 21.73466 L 1.18924 5.98727" />
    <path d="M 2.99531 23.38645 L 2.49328 23.72401" />
    <path d="M -5.48182 16.43015 L 2.49328 23.72401" />
    <path d="M 2.99531 23.38645 L 0.68721 21.27552" />
    <path d="M -7.75737 13.55227 L -16.15919 5.86814" />
    <path d="M -20.17869 4.56247 L -19.63292 4.52293" />
    <path d="M -19.72726 4.25893 L -20.17869 4.56247 L -20.17869 6.35449" />
    <path d="M -19.63292 6.85364 L -20.17869 6.35449" />
    <path d="M 1.75639 25.61362 L 2.49328 23.72401" />
    <path d="M -0.41923 24.42609 L 1.75639 25.61362" />
    <path d="M -0.41923 24.42609 L -16.15919 10.03064" />
    <path d="M -1.85157 4.31259 A 2 1.54824 29.73447 0 1 -2.24949 2.42048" />
    <path d="M -1.17825 5.01635 L -1.85157 4.31259 L -2.08705 4.72486" />
    <path d="M 1.50714 5.52372 A 2 1.54824 29.73447 0 1 -1.17825 5.01635 L -1.41373 5.42862" />
    <path d="M 17.23742 -5.05303 L 1.50714 5.52372 L 1.27166 5.93599" />
    <path d="M 17.22953 -7.3607 A 2 1.54824 29.73447 0 1 17.62745 -5.46858 A 2 1.54824 29.73447 0 1 17.23742 -5.05303 L 17.00194 -4.64076" />
    <path d="M 14.32908 -8.77563 A 2 1.54824 29.73447 0 1 16.55621 -8.06446 L 17.22953 -7.3607" />
    <path d="M 14.18872 -2.7492 L 14.18872 12.63825 L 16.41749 13.85479 L 16.41749 -4.24779" />
    <path d="M 16.91952 10.36121 L 16.91952 -4.58535" />
    <path d="M 16.91952 13.51724 L 16.91952 13.50414 L 16.91952 10.36121 L 19.22762 12.47215" />
    <path d="M 16.91952 13.51724 L 16.41749 13.85479" />
    <path d="M 2.25842 25.27606 L 2.99531 23.38645" />
    <path d="M 2.25842 25.27606 L 1.75639 25.61362" />
    <path d="M -1.84989 -6.80491 L 1.08589 -4.11991" />
    <path d="M 7.79053 2.01202 L 8.11462 2.30843" />
    <path d="M 11.60118 5.49716 L 14.18872 7.86367" />
    <path d="M 14.18872 11.22947 L 9.66644 7.09349" />
    <path d="M -0.2266 -1.95449 L -3.44435 -4.89737" />
    <path d="M -3.44435 -6.68939 L -3.44435 -4.89737" />
    <path d="M -1.84989 -6.80491 L -3.44435 -6.68939" />
    <path d="M 19.72965 12.13459 L 19.22762 12.47215" />
    <path d="M -1.34786 -7.14247 L -1.84989 -6.80491" />
    <path d="M 19.72965 12.13459 L 16.91952 9.56451" />
    <path d="M 14.18872 7.06697 L 11.83888 4.91785" />
    <path d="M 8.7962 2.13508 L 8.10121 1.49946" />
    <path d="M 1.76165 -4.29857 L 1.07719 -4.92457 L -1.34786 -7.14247 L -1.89452 -7.10286 L -1.89452 -12.07253" />
    <path d="M 18.49073 14.36176 L 19.22762 12.47215" />
    <path d="M 18.49073 14.36176 L 16.91952 13.50414" />
    <path d="M -2.94232 -7.02694 L -3.44435 -6.68939" />
    <path d="M -1.89452 -7.10286 L -2.94232 -7.02694" />
    <path d="M 18.99276 14.0242 L 18.49073 14.36176" />
    <path d="M 18.99276 14.0242 L 19.72965 12.13459" />
    <path d="M -0.13007 -11.10943 L -0.13007 -7.53912" />
    <path d="M 1.07719 -10.45047 L 1.07719 -4.92457" />
    <path d="M -1.89452 0.79734 L -1.89452 -3.47993" />
    <path d="M 1.57922 -10.17644 L 1.57922 -4.46543" />
    <path d="M -0.46476 -7.31408 L -0.13007 -7.53912" />
    <path d="M -0.46476 -11.29211 L -0.46476 -7.31408" />
    <path d="M -1.02195 -7.61822 L -0.46476 -7.31408" />
    <path d="M -1.02195 -11.59625 L -1.02195 -7.61822" />
    <path d="M 16.91952 -1.82839 A 1 0.60581 180 0 0 18.1277 -1.95913 L 18.1277 -2.75473 L 20.13583 -4.10496 A 1 0.60581 180 0 0 20.3929 -4.51047 L 20.3929 -3.71487" />
    <path d="M -0.46476 -11.29211 L 9.46616 -5.87147" />
    <path d="M 11.79752 -4.59892 L 11.97667 -4.50114" />
    <path d="M -2.60067 -12.45797 L -1.02195 -11.59625" />
    <path d="M -2.93129 -12.90805 A 1 0.60581 180 0 0 -2.60067 -12.45797 L -2.60067 -13.25358 L 10.22281 -6.25407" />
    <path d="M 20.13583 -3.30935 A 1 0.60581 180 0 0 20.3929 -3.71487" />
    <path d="M 18.1277 -1.95913 L 20.13583 -3.30935 L 20.13583 -4.10496" />
    <path d="M 12.15987 -5.19675 L 12.3203 -5.10918" />
    <path d="M 16.91952 -2.624 A 1 0.60581 180 0 0 18.1277 -2.75473" />
    <path d="M 1.57922 -9.14791 L 1.85224 -10.02741" />
    <path d="M -2.67422 -14.10917 A 1 0.60581 180 0 0 -2.93129 -13.70365 L -2.93129 -12.90805" />
    <path d="M -2.93129 -13.70365 A 1 0.60581 180 0 0 -2.60067 -13.25358" />
    <path d="M -0.6661 -15.45939 L -2.67422 -14.10917" />
    <path d="M 0.7462 -15.50395 A 1 0.60581 180 0 0 -0.6661 -15.45939" />
    <path d="M 20.06227 -4.96055 L 17.78567 -6.2032" />
    <path d="M 13.18922 -8.7121 L 0.7462 -15.50395" />
    <path d="M 20.3929 -4.51047 A 1 0.60581 180 0 0 20.06227 -4.96055" />
    <path d="M 13.24375 -8.75043 L 13.19934 -8.67717" />
    <path d="M 4.55067 7.00089 L 4.56626 7.00988" />
    <path d="M 13.86353 -8.32926 L 10.24058 -2.35193" />
    <path d="M 7.93119 1.45824 L 4.56626 7.00988" />
    <path d="M 13.24375 -8.75043 L 13.86353 -8.32926" />
    <path d="M 14.39222 -10.32353 L 13.24375 -8.75043" />
    <path d="M 15.012 -9.90236 L 13.86353 -8.32926" />
    <path d="M 5.68718 5.48225 L 8.26033 1.23694" />
    <path d="M 10.77724 -2.91561 L 15.012 -9.90236" />
    <path d="M 5.68718 5.48225 L 5.30657 6.00096" />
    <path d="M 5.25478 6.07155 L 4.56626 7.00988" />
    <path d="M 5.25478 6.07155 A 20 14.92384 201.30419 0 0 5.30657 6.00096" />
    <path d="M 4.4672 7.13861 L 3.05629 8.47805" />
    <path d="M 3.01779 8.45 L 3.05629 8.47805" />
    <path d="M 2.9327 8.59039 L 1.25926 9.71558" />
    <path d="M 1.18924 9.65154 L 1.25926 9.71558" />
    <path d="M -3.03226 11.36201 L -3.07822 11.37594" />
    <path d="M -3.1189 11.31471 L -3.07822 11.37594" />
    <path d="M -3.21481 11.32099 A 20 14.92384 201.30419 0 0 -3.14033 11.30302" />
    <path d="M -3.26903 11.41045 L -5.51744 11.78019" />
    <path d="M -5.54102 11.7314 L -5.51744 11.78019" />
    <path d="M -5.692 11.74852 A 20 14.92384 201.30419 0 0 -5.54102 11.7314" />
    <path d="M -5.71799 11.79141 L -6.1468 11.809" />
    <path d="M -6.83486 12.27164 L -6.1468 11.809" />
    <path d="M -7.08685 15.22798 L -7.20872 15.10816 L -7.31941 14.98188 L -7.41834 14.84981 L -7.505 14.71263 L -7.57891 14.57107 L -7.63971 14.42588 L -7.68707 14.2778 L -7.72073 14.12763 L -7.74053 13.97615 L -7.74636 13.82415 L -7.73819 13.67243 L -7.71607 13.52179 L -7.6801 13.37301 L -7.63048 13.22689 L -7.81188 13.69207" />
    <path d="M -7.63048 13.22689 L -7.59756 13.14816 L -7.56066 13.07057 L -7.51985 12.99426 L -7.47518 12.91935 L -7.42672 12.84595 L -7.37456 12.77418 L -7.31878 12.70415 L -7.25945 12.63598 L -7.19669 12.56976 L -7.13058 12.50561 L -7.06123 12.44363 L -6.98875 12.38391 L -6.91325 12.32655 L -6.83486 12.27164" />
    <path d="M -3.32261 15.48387 L -3.55849 15.62495 L -3.81348 15.74406 L -4.08439 15.83969 L -4.36781 15.91066 L -4.66016 15.95606 L -4.95778 15.97532 L -5.25692 15.96821 L -5.55382 15.9348 L -5.84474 15.87553 L -6.12603 15.79113 L -6.39415 15.68268 L -6.64573 15.55152 L -6.8776 15.39932 L -7.08685 15.22798" />
    <path d="M 11.06893 5.80727 L 1.18924 12.45019" />
    <path d="M -1.54156 14.28634 L -3.32261 15.48387 L -3.50401 15.94905 L -3.73989 16.09013 L -3.99489 16.20924 L -4.2658 16.30487 L -4.54921 16.37584 L -4.84157 16.42124 L -5.13918 16.4405 L -5.43832 16.43338 L -5.73522 16.39998 L -6.02615 16.34071 L -6.30744 16.25631 L -6.57556 16.14786 L -6.82713 16.0167 L -7.05901 15.8645 L -7.26826 15.69316 L -7.39013 15.57334 L -7.50082 15.44706 L -7.59975 15.31498 L -7.6864 15.17781 L -7.76032 15.03625 L -7.82112 14.89105 L -7.86847 14.74298 L -7.90214 14.59281 L -7.92194 14.44133 L -7.92777 14.28933 L -7.9196 14.13761 L -7.89747 13.98697 L -7.8615 13.83819 L -7.81188 13.69207" />
    <path d="M 11.32092 2.85093 L 11.44279 2.97076 L 11.55348 3.09703 L 11.65241 3.22911 L 11.73907 3.36628 L 11.81298 3.50784 L 11.87378 3.65304 L 11.92114 3.80111 L 11.9548 3.95128 L 11.9746 4.10277 L 11.98044 4.25477 L 11.97227 4.40649 L 11.95014 4.55713 L 11.91417 4.7059 L 11.86455 4.85202 L 11.68314 5.3172 L 11.65022 5.39594 L 11.61333 5.47352 L 11.57251 5.54983 L 11.52784 5.62474 L 11.47939 5.69814 L 11.42723 5.76991 L 11.37144 5.83994 L 11.31212 5.90812 L 11.24935 5.97433 L 11.18324 6.03848 L 11.11389 6.10046 L 11.04141 6.16018 L 10.96592 6.21754 L 10.88752 6.27245 L 1.18924 12.7934" />
    <path d="M 11.86455 4.85202 L 11.83163 4.93076 L 11.79473 5.00834 L 11.75392 5.08465 L 11.70925 5.15956 L 11.66079 5.23296 L 11.60863 5.30473 L 11.55285 5.37476 L 11.49353 5.44294 L 11.43076 5.50915 L 11.36465 5.5733 L 11.2953 5.63529 L 11.22282 5.695 L 11.14732 5.75236 L 11.06893 5.80727 L 10.88752 6.27245" />
    <path d="M 7.55668 2.59504 L 7.79256 2.45396 L 8.04756 2.33486 L 8.31847 2.23922 L 8.60188 2.16826 L 8.89423 2.12286 L 9.19185 2.10359 L 9.49099 2.11071 L 9.78789 2.14411 L 10.07881 2.20338 L 10.3601 2.28778 L 10.62822 2.39624 L 10.8798 2.52739 L 11.11167 2.6796 L 11.32092 2.85093" />
    <path d="M 7.35495 2.73068 L 7.55668 2.59504" />
    <path d="M 14.39222 -10.32353 L 15.012 -9.90236" />
    <path d="M 14.42626 -10.40187 L 14.313 -10.21501" />
    <path d="M 15.08796 -10.05048 L 15.00221 -9.90901" />
    <path d="M 14.42626 -10.40187 L 15.08796 -10.05048" />
    <path d="M 15.93773 -11.80364 L 15.08796 -10.05048" />
    <path d="M -1.54156 14.62954 L -3.50401 15.94905" />
    <path d="M 13.19645 -8.67964 L 13.76225 -8.19689 L 12.33743 -6.83449 L 8.94227 -1.23297" />
    <path d="M 4.4672 7.13861 L 7.89567 1.48212" />
    <path d="M 10.18868 -2.30101 L 13.76225 -8.19689" />
    <path d="M 6.88454 2.16199 L 3.05629 8.47805" />
    <path d="M 11.77163 -7.31724 L 11.72543 -7.24101" />
    <path d="M 11.77163 -7.31724 L 12.33743 -6.83449" />
    <path d="M 11.71199 -7.25537 L 12.2128 -6.72043 L 10.53936 -5.59524 L 7.23014 -0.13551" />
    <path d="M 2.9327 8.59039 L 6.79086 2.22498" />
    <path d="M 8.84106 -1.15756 L 12.2128 -6.72043" />
    <path d="M 5.11743 3.35016 L 1.25926 9.71558" />
    <path d="M 10.03856 -6.13018 L 9.9887 -6.04792" />
    <path d="M 10.03856 -6.13018 L 10.53936 -5.59524" />
    <path d="M 9.9539 -6.09503 L 10.37996 -5.51832 L 8.49048 -4.65225 L 5.20148 0.77412" />
    <path d="M 1.18924 9.64503 L 4.92707 3.47815" />
    <path d="M 7.06343 -0.04653 L 10.37996 -5.51832" />
    <path d="M 2.6239 5.02676 L 1.18924 7.39374" />
    <path d="M 8.06442 -5.22896 L 8.01004 -5.13924" />
    <path d="M 8.06442 -5.22896 L 8.49048 -4.65225" />
    <path d="M 7.97232 -5.20602 L 8.31534 -4.59877 L 6.2466 -4.00866 L 2.96124 1.41171" />
    <path d="M 1.18924 7.15827 L 2.383 5.18874" />
    <path d="M 5.01941 0.83904 L 8.31534 -4.59877" />
    <path d="M -3.06045 11.34662 L -3.07822 11.37594" />
    <path d="M 5.90358 -4.61592 L 5.84246 -4.51509" />
    <path d="M 5.90358 -4.61592 L 6.2466 -4.00866" />
    <path d="M 5.80582 -4.60564 L 6.05913 -3.97966 L 3.85139 -3.67701 L 0.55977 1.75368" />
    <path d="M -3.26903 11.41045 L -3.18811 11.27694" />
    <path d="M 2.76716 1.45161 L 6.05913 -3.97966" />
    <path d="M -1.56918 5.26614 L -2.48991 6.78522" />
    <path d="M -4.70918 10.44668 L -5.51744 11.78019" />
    <path d="M 3.59807 -4.30299 L 3.52674 -4.1853" />
    <path d="M 3.59807 -4.30299 L 3.85139 -3.67701" />
    <path d="M 3.49656 -4.30558 L 3.65523 -3.67305 L 1.35146 -3.66375 L -4.36233 5.76318" />
    <path d="M -5.71799 11.79141 L -4.85477 10.36721" />
    <path d="M -2.6355 6.70575 L -1.68779 5.14216" />
    <path d="M 0.35721 1.7682 L 3.65523 -3.67305" />
    <path d="M -8.41886 12.45586 L -7.06909 12.45041" />
    <path d="M -6.5816 9.42465 L -8.41886 12.45586" />
    <path d="M 13.13245 -8.61844 L 15.27603 -12.15504 L 15.93773 -11.80364" />
    <path d="M 15.27603 -12.15504 L 14.42626 -10.40187" />
    <path d="M 13.19645 -8.67964 L 11.77163 -7.31724" />
    <path d="M 11.71199 -7.25537 L 10.03856 -6.13018" />
    <path d="M 9.9539 -6.09503 L 8.06442 -5.22896" />
    <path d="M 7.97232 -5.20602 L 5.90358 -4.61592" />
    <path d="M 5.80582 -4.60564 L 3.59807 -4.30299" />
    <path d="M 1.19279 -4.29628 L -4.76963 5.54086" />
    <path d="M -6.9889 9.20233 L -8.57753 11.82333 L -8.41886 12.45586" />
    <path d="M 3.49656 -4.30558 L 1.19279 -4.29628 L 1.35146 -3.66375" />
    <path d="M 0.3893 9.96785 L 0.3893 9.17224" />
    <path d="M 0.64638 8.76672 L 0.64638 9.56233" />
    <path d="M -22.67782 -0.42646 L -22.67782 0.36915" />
    <path d="M 17.39197 -5.05632 L 17.62745 -5.46858" />
</svg>