<svg version="1.1" xmlns="http://www.w3.org/2000/svg" viewBox="-23.484458926402592 -16.71130041185522 45.01933580045663 43.17574748264908" fill="none" stroke="black" stroke-width="0.6%" vector-effect="non-scaling-stroke">
    <path d="M -1.29132 11.13148 L 0.70014 9.77973 A 1 0.60247 180 0 0 0.95224 9.37979" />
    <path d="M -1.29132 10.33334 L 0.70014 8.98159 A 1 0.60247 180 0 0 0.95224 8.58165 A 1 0.60247 180 0 0 0.61606 8.13107 L -1.25367 7.13124 L -1.25367 4.71843" />
    <path d="M -2.70303 11.18213 A 1 0.60247 180 0 0 -1.29132 11.13148 L -1.29132 10.33334" />
    <path d="M -2.70303 10.38399 A 1 0.60247 180 0 0 -1.29132 10.33334" />
    <path d="M -22.14828 0.78391 L -2.70303 11.18213 L -2.70303 10.38399" />
    <path d="M -22.48446 0.33333 A 1 0.60247 180 0 0 -22.14828 0.78391 L -22.14828 -0.01423 L -2.70303 10.38399" />
    <path d="M -1.25367 7.13124 L -18.82919 -2.26715 A 1 0.60247 180 0 0 -20.2409 -2.2165 L -22.23235 -0.86475 A 1 0.60247 180 0 0 -22.48446 -0.46481 A 1 0.60247 180 0 0 -22.14828 -0.01423" />
    <path d="M -1.25367 19.1035 L -1.25367 11.10593" />
    <path d="M 0.3893 4.91205 L 0.47841 4.75578 C 0.53 4.75 0.57 4.74 0.61902 4.7297 C 0.67 4.72 0.71 4.71 0.75652 4.69728 C 0.8 4.69 0.85 4.67 0.89065 4.65872 C 0.93 4.64 0.98 4.63 1.02113 4.61419 C 1.06 4.6 1.09 4.59 1.12879 4.57186" />
    <path d="M 0.99001 5.27244 L 0.47841 4.75578" />
    <path d="M 0.99001 21.12776 L 0.99001 5.27244 L 1.48787 4.9345 L 1.12879 4.57186" />
    <path d="M 0.99001 21.12776 L -1.25367 19.1035 L -5.49235 15.27935" />
    <path d="M -15.96153 6.62113 L -15.96153 4.09224" />
    <path d="M -19.45097 4.36475 L -19.45097 14.57149 L -16.45939 16.17122 L -16.45939 3.82601" />
    <path d="M -17.67472 3.17612 L -17.67472 4.34737 L -18.69318 5.03868 L -19.2541 4.73873 L -20.06114 3.20562 L -20.06114 1.9" />
    <path d="M -19.50022 3.50557 L -20.06114 3.20562" />
    <path d="M -19.50022 3.50557 L -19.50022 2.19994" />
    <path d="M -18.69318 5.03868 L -19.50022 3.50557" />
    <path d="M -15.96153 15.83328 L -16.45939 16.17122" />
    <path d="M -15.96153 15.83328 L -15.96153 9.99764 L -15.96153 6.62113 L -8.79252 13.08904" />
    <path d="M -2.19549 4.08939 L -2.32727 3.94194 L -2.44487 3.78645 L -2.54748 3.62393 L -2.63442 3.4555 L -2.70511 3.28226 L -2.75908 3.10538 L -2.79596 2.92605 L -2.81552 2.74545 L -2.81761 2.5648 L -2.80223 2.38531 L -2.76948 2.20817 L -2.71958 2.03457 L -2.65286 1.86568 L -2.56976 1.70261" />
    <path d="M 0.3893 4.91205 L 0.18857 4.93661 L -0.01456 4.94775 L -0.21886 4.94537 L -0.42306 4.92951 L -0.62592 4.90025 L -0.8262 4.85778 L -1.02269 4.80235 L -1.21417 4.7343 L -1.39947 4.65405 L -1.57748 4.56209 L -1.74709 4.45899 L -1.90727 4.34536 L -2.05704 4.22191 L -2.19549 4.08939" />
    <path d="M 1.49052 4.48706 L 1.47133 4.49995 L 1.45199 4.51268 L 1.43249 4.52525 L 1.41285 4.53765 L 1.39305 4.54988 L 1.37311 4.56195 L 1.35302 4.57385 L 1.33279 4.58558 L 1.31242 4.59715 L 1.29191 4.60854 L 1.27126 4.61975 L 1.25047 4.6308 L 1.22955 4.64167 L 1.2085 4.65236" />
    <path d="M 15.76261 -5.20052 L 1.49052 4.48706" />
    <path d="M 16.14032 -5.52052 L 16.11618 -5.4954 L 16.09158 -5.4706 L 16.06653 -5.44614 L 16.04102 -5.42202 L 16.01508 -5.39824 L 15.9887 -5.37481 L 15.96188 -5.35173 L 15.93464 -5.32901 L 15.90698 -5.30665 L 15.87891 -5.28467 L 15.85043 -5.26306 L 15.82155 -5.24183 L 15.79227 -5.22098 L 15.76261 -5.20052" />
    <path d="M 10.86621 -6.40423 A 20 15.39873 209.69083 0 0 11.00625 -6.66972" />
    <path d="M 1.72758 4.0713 L 1.49395 4.21165 L 1.24195 4.32824 L 0.97475 4.41959 L 0.6957 4.48456 L 0.40833 4.52234 L 0.11623 4.53244 L -0.17692 4.51474 L -0.46742 4.46947 L -0.75163 4.39719 L -1.02598 4.29882 L -1.287 4.17558 L -1.53143 4.02903 L -1.75618 3.86101 L -1.95843 3.67363 L -2.09022 3.52619 L -2.20781 3.37069 L -2.31042 3.20818 L -2.39736 3.03974 L -2.46805 2.8665 L -2.52202 2.68963 L -2.55891 2.51029 L -2.57846 2.32969 L -2.58056 2.14904 L -2.56518 1.96955 L -2.53243 1.79241 L -2.48252 1.61882 L -2.4158 1.44992 L -2.33271 1.28685 L -2.56976 1.70261" />
    <path d="M 1.48787 21.57694 L 1.48787 4.9345" />
    <path d="M 3.31354 23.22406 L 2.81567 23.562" />
    <path d="M -6.31897 15.32068 L 2.81567 23.562" />
    <path d="M 3.31354 23.22406 L 0.99001 21.12776" />
    <path d="M -8.62801 12.45034 L -15.96153 5.83401" />
    <path d="M -20.00791 4.54926 L -19.45097 4.50393" />
    <path d="M -19.52602 4.22216 L -20.00791 4.54926 L -20.00791 6.34698" />
    <path d="M -19.45097 6.84946 L -20.00791 6.34698" />
    <path d="M 2.07386 25.46445 L 2.81567 23.562" />
    <path d="M -0.11631 24.29327 L 2.07386 25.46445" />
    <path d="M -0.11631 24.29327 L -15.96153 9.99764" />
    <path d="M 13.54573 -11.12357 L 12.41756 -9.55854 L 9.58593 -4.59232" />
    <path d="M 4.71259 4.36834 L 6.63652 0.99407" />
    <path d="M 10.70906 -6.1485 L 13.54573 -11.12357" />
    <path d="M 4.71259 4.36834 L 4.49462 4.66906" />
    <path d="M 4.11839 5.18812 L 3.60731 5.89322" />
    <path d="M 6.2518 1.25521 L 3.60731 5.89322" />
    <path d="M 9.84963 -4.95814 L 9.58593 -4.59232" />
    <path d="M 11.79165 -9.96988 L 11.74952 -9.89598" />
    <path d="M 3.58883 5.88272 L 3.60731 5.89322" />
    <path d="M 9.56814 -4.60401 L 9.58593 -4.59232" />
    <path d="M 11.79165 -9.96988 L 12.41756 -9.55854" />
    <path d="M 11.74527 -9.89949 L 12.31798 -9.4268 L 10.91042 -8.06783 L 8.0788 -3.10161" />
    <path d="M 9.48635 -4.46058 L 12.31798 -9.4268" />
    <path d="M 3.50957 6.02174 L 6.21189 1.2823" />
    <path d="M 3.50957 6.02174 L 2.11357 7.36044" />
    <path d="M 5.17971 1.98292 L 2.11357 7.36044" />
    <path d="M 10.33772 -8.54051 L 10.29377 -8.46345" />
    <path d="M 2.07222 7.33071 L 2.11357 7.36044" />
    <path d="M 8.03915 -3.13432 L 8.0788 -3.10161" />
    <path d="M 10.33772 -8.54051 L 10.91042 -8.06783" />
    <path d="M 10.27887 -8.47884 L 10.78723 -7.95401 L 9.12769 -6.82755 L 6.29606 -1.86133" />
    <path d="M 7.9556 -2.98779 L 10.78723 -7.95401" />
    <path d="M 1.99124 7.47274 L 5.08461 2.04748" />
    <path d="M 1.99124 7.47274 L 1.48787 7.81441" />
    <path d="M 3.42506 3.17394 L 1.48787 6.57146" />
    <path d="M 8.61932 -7.35237 L 8.57178 -7.269" />
    <path d="M 6.22424 -1.93547 L 6.29606 -1.86133" />
    <path d="M 8.61932 -7.35237 L 9.12769 -6.82755" />
    <path d="M 6.22384 -1.93524 A 20 15.39873 209.69083 0 0 6.22424 -1.93547" />
    <path d="M 8.53507 -7.31692 L 8.9692 -6.75017 L 7.08997 -5.87814 L 4.25834 -0.91192" />
    <path d="M 6.13757 -1.78395 L 8.9692 -6.75017" />
    <path d="M 1.48787 6.37088 L 3.23849 3.30058" />
    <path d="M 6.65584 -6.44489 L 6.60383 -6.35367" />
    <path d="M 4.20059 -0.98731 L 4.25834 -0.91192" />
    <path d="M 6.65584 -6.44489 L 7.08997 -5.87814" />
    <path d="M 4.14598 -0.96665 A 20 15.39873 209.69083 0 0 4.20059 -0.98731" />
    <path d="M 6.56397 -6.42145 L 6.91542 -5.82381 L 4.85308 -5.22319 L 2.02145 -0.25697" />
    <path d="M 4.08379 -0.85759 L 6.91542 -5.82381" />
    <path d="M -1.25367 5.48707 L -1.9721 6.74707" />
    <path d="M 4.50163 -5.82083 L 4.44297 -5.71794" />
    <path d="M 1.98332 -0.3218 L 2.02145 -0.25697" />
    <path d="M 4.50163 -5.82083 L 4.85308 -5.22319" />
    <path d="M 1.87465 -0.29763 A 20 15.39873 209.69083 0 0 1.98332 -0.3218" />
    <path d="M 4.40394 -5.80987 L 4.66586 -5.19296 L 2.46055 -4.87544 L -0.37108 0.09078" />
    <path d="M 1.83423 -0.22674 L 4.66586 -5.19296" />
    <path d="M -2.10236 6.67741 L -1.25367 5.18894" />
    <path d="M -4.30354 10.32627 L -6.40915 10.68058" />
    <path d="M -2.46306 3.75977 L -3.65365 5.84787" />
    <path d="M -5.76234 9.54619 L -6.40915 10.68058" />
    <path d="M 2.19863 -5.49235 L -1.00547 0.12714" />
    <path d="M -2.74109 3.17114 L -4.12392 5.59639" />
    <path d="M -6.23262 9.29471 L -7.04438 10.71841" />
    <path d="M -6.43246 10.63333 L -6.40915 10.68058" />
    <path d="M -0.38891 0.04878 L -0.37108 0.09078" />
    <path d="M 2.19863 -5.49235 L 2.46055 -4.87544" />
    <path d="M -0.95288 0.09144 A 20 15.39873 209.69083 0 0 -0.38891 0.04878" />
    <path d="M -1.66153 0.57246 L -0.95288 0.09144" />
    <path d="M -2.33271 1.28685 L -2.29775 1.22794 L -2.26063 1.17003 L -2.22139 1.11319 L -2.18007 1.05746 L -2.13671 1.00291 L -2.09133 0.94957 L -2.044 0.89751 L -1.99474 0.84676 L -1.94361 0.79737 L -1.89065 0.7494 L -1.83591 0.70287 L -1.77944 0.65785 L -1.7213 0.61436 L -1.66153 0.57246" />
    <path d="M 15.99967 -5.61627 L 1.72758 4.0713 L 1.49052 4.48706" />
    <path d="M 16.29657 -8.71745 L 16.42835 -8.57001 L 16.54594 -8.41451 L 16.64855 -8.252 L 16.73549 -8.08356 L 16.80619 -7.91032 L 16.86015 -7.73345 L 16.89704 -7.55411 L 16.9166 -7.37351 L 16.91869 -7.19286 L 16.90331 -7.01337 L 16.87056 -6.83623 L 16.82066 -6.66264 L 16.75393 -6.49374 L 16.67084 -6.33067 L 16.52319 -6.07171 C 16.54 -6.1 16.56 -6.14 16.57599 -6.17091" />
    <path d="M 16.67084 -6.33067 L 16.63588 -6.27175 L 16.59876 -6.21385 L 16.55953 -6.15701 L 16.51821 -6.10128 L 16.47484 -6.04673 L 16.42947 -5.99339 L 16.38213 -5.94133 L 16.33287 -5.89058 L 16.28174 -5.84119 L 16.22878 -5.79321 L 16.17404 -5.74669 L 16.11757 -5.70167 L 16.05943 -5.65818 L 15.99967 -5.61627 L 15.76261 -5.20052" />
    <path d="M 16.14032 -5.52052 L 16.23065 -5.67895 C 16.26 -5.71 16.29 -5.74 16.31296 -5.77108 C 16.34 -5.8 16.36 -5.83 16.38932 -5.86737 C 16.41 -5.9 16.44 -5.93 16.45948 -5.96763 C 16.48 -6 16.5 -6.04 16.52319 -6.07171" />
    <path d="M 16.58973 13.70509 L 16.58973 -5.31631 L 17.0876 -5.65425 L 16.57838 -6.16851" />
    <path d="M 14.34605 12.5053 L 16.58973 13.70509" />
    <path d="M 14.34605 -4.23899 L 14.34605 12.5053" />
    <path d="M 16.58973 -5.31631 L 16.23065 -5.67895" />
    <path d="M 17.0876 10.20107 L 17.0876 -5.65425" />
    <path d="M 12.61056 -9.11512 L 12.84418 -9.25547 L 13.09618 -9.37206 L 13.36338 -9.46341 L 13.64243 -9.52838 L 13.92981 -9.56616 L 14.22191 -9.57626 L 14.51505 -9.55856 L 14.80555 -9.51329 L 15.08977 -9.44101 L 15.36411 -9.34263 L 15.62514 -9.2194 L 15.86956 -9.07285 L 16.09431 -8.90483 L 16.29657 -8.71745" />
    <path d="M 12.26797 -8.88259 L 12.61056 -9.11512" />
    <path d="M 9.84963 -4.95814 A 20 15.39873 209.69083 0 0 10.98684 -6.61091 A 20 15.39873 209.69083 0 0 11.2433 -7.08548" />
    <path d="M 9.48635 -4.46058 L 8.0788 -3.10161" />
    <path d="M 7.9556 -2.98779 L 6.29606 -1.86133" />
    <path d="M 6.13757 -1.78395 L 4.25834 -0.91192" />
    <path d="M 4.08379 -0.85759 L 2.02145 -0.25697" />
    <path d="M 1.83423 -0.22674 L -0.37108 0.09078" />
    <path d="M 2.57172 25.12651 L 3.31354 23.22406" />
    <path d="M 2.57172 25.12651 L 2.07386 25.46445" />
    <path d="M 12.91983 -11.53492 L 13.54573 -11.12357" />
    <path d="M 12.91983 -11.53492 L 11.79165 -9.96988" />
    <path d="M 4.11839 5.18812 A 20 14.84281 201.30216 0 0 4.49462 4.66906" />
    <path d="M -7.00935 10.69463 A 20 14.84281 201.30216 0 0 -6.43246 10.63333" />
    <path d="M -7.718 11.17564 L -7.00935 10.69463" />
    <path d="M -7.94158 14.12238 L -8.06511 14.00256 L -8.17739 13.8762 L -8.27783 13.74396 L -8.3659 13.60654 L -8.44112 13.46467 L -8.50309 13.31912 L -8.55149 13.17065 L -8.58607 13.02006 L -8.60662 12.86814 L -8.61306 12.7157 L -8.60533 12.56355 L -8.58349 12.4125 L -8.54765 12.26336 L -8.498 12.11691 L -8.68061 12.58525" />
    <path d="M -8.498 12.11691 L -8.46563 12.03945 L -8.42939 11.96312 L -8.38933 11.88803 L -8.3455 11.81431 L -8.29798 11.74206 L -8.24684 11.67139 L -8.19217 11.60242 L -8.13403 11.53525 L -8.07253 11.46999 L -8.00775 11.40673 L -7.9398 11.34557 L -7.86879 11.28661 L -7.79482 11.22994 L -7.718 11.17564" />
    <path d="M -4.18226 14.3656 L -4.41635 14.50692 L -4.66973 14.62641 L -4.9392 14.72256 L -5.22139 14.79416 L -5.51275 14.84031 L -5.80961 14.86044 L -6.10823 14.85428 L -6.40486 14.82192 L -6.69578 14.76377 L -6.97732 14.68055 L -7.24594 14.57331 L -7.49827 14.4434 L -7.73112 14.29246 L -7.94158 14.12238" />
    <path d="M 10.08983 4.67803 L 1.48787 10.51684" />
    <path d="M -1.25367 12.37774 L -4.18226 14.3656 L -4.36488 14.83394 L -4.59897 14.97526 L -4.85234 15.09475 L -5.12182 15.19089 L -5.40401 15.26249 L -5.69537 15.30865 L -5.99222 15.32877 L -6.29085 15.32262 L -6.58748 15.29026 L -6.8784 15.23211 L -7.15994 15.14889 L -7.42856 15.04165 L -7.68088 14.91174 L -7.91374 14.7608 L -8.1242 14.59072 L -8.24773 14.4709 L -8.36001 14.34454 L -8.46045 14.21229 L -8.54851 14.07488 L -8.62373 13.93301 L -8.68571 13.78746 L -8.73411 13.63899 L -8.76868 13.4884 L -8.78924 13.33647 L -8.79567 13.18403 L -8.78795 13.03189 L -8.76611 12.88084 L -8.73027 12.7317 L -8.68061 12.58525" />
    <path d="M 10.31341 1.73129 L 10.43694 1.85111 L 10.54922 1.97747 L 10.64966 2.10971 L 10.73772 2.24713 L 10.81294 2.389 L 10.87492 2.53455 L 10.92332 2.68302 L 10.95789 2.83361 L 10.97845 2.98553 L 10.98488 3.13797 L 10.97716 3.29012 L 10.95532 3.44117 L 10.91948 3.59031 L 10.86982 3.73676 L 10.68721 4.2051 L 10.65484 4.28256 L 10.6186 4.35889 L 10.57854 4.43397 L 10.53471 4.5077 L 10.48719 4.57995 L 10.43605 4.65062 L 10.38138 4.71959 L 10.32324 4.78676 L 10.26174 4.85202 L 10.19696 4.91528 L 10.12901 4.97644 L 10.058 5.0354 L 9.98403 5.09207 L 9.90721 5.14636 L 1.48787 10.86123" />
    <path d="M 10.86982 3.73676 L 10.83746 3.81422 L 10.80122 3.89055 L 10.76115 3.96564 L 10.71733 4.03936 L 10.66981 4.11161 L 10.61867 4.18228 L 10.56399 4.25125 L 10.50586 4.31842 L 10.44435 4.38368 L 10.37958 4.44694 L 10.31163 4.5081 L 10.24062 4.56706 L 10.16664 4.62373 L 10.08983 4.67803 L 9.90721 5.14636" />
    <path d="M 6.55409 1.48807 L 6.78818 1.34675 L 7.04155 1.22726 L 7.31103 1.13111 L 7.59322 1.05951 L 7.88458 1.01336 L 8.18143 0.99324 L 8.48006 0.99939 L 8.77669 1.03175 L 9.06761 1.0899 L 9.34915 1.17312 L 9.61777 1.28036 L 9.87009 1.41027 L 10.10295 1.56121 L 10.31341 1.73129" />
    <path d="M 6.22906 1.70869 L 6.55409 1.48807" />
    <path d="M 11.74527 -9.89949 L 10.33772 -8.54051" />
    <path d="M -1.25367 12.72213 L -4.36488 14.83394" />
    <path d="M 10.27887 -8.47884 L 8.61932 -7.35237" />
    <path d="M 8.53507 -7.31692 L 6.65584 -6.44489" />
    <path d="M 6.56397 -6.42145 L 4.50163 -5.82083" />
    <path d="M 4.40394 -5.80987 L 2.19863 -5.49235" />
    <path d="M 17.0876 13.36715 L 17.0876 13.35401 L 17.0876 10.20107 L 19.41113 12.29737" />
    <path d="M 17.0876 13.36715 L 16.58973 13.70509" />
    <path d="M -1.80733 -6.84602 L 1.34754 -3.99967" />
    <path d="M 6.77694 0.89876 L 7.11062 1.1998" />
    <path d="M 10.61658 4.36289 L 14.34605 7.72764" />
    <path d="M 14.34605 11.10416 L 8.67187 5.98489" />
    <path d="M 0.07628 -1.77009 L -3.41246 -4.91765" />
    <path d="M -3.41246 -6.71537 L -3.41246 -4.91765" />
    <path d="M -1.80733 -6.84602 L -3.41246 -6.71537" />
    <path d="M 19.90899 11.95943 L 19.41113 12.29737" />
    <path d="M -1.30947 -7.18395 L -1.80733 -6.84602" />
    <path d="M 19.90899 11.95943 L 17.0876 9.41396" />
    <path d="M 14.34605 6.94053 L 10.85035 3.78669" />
    <path d="M 7.78978 1.02543 L 7.27481 0.56082" />
    <path d="M 1.64389 -4.51942 L 1.13179 -4.98144 L -1.30947 -7.18395 L -1.85979 -7.13916 L -1.85979 -12.1309" />
    <path d="M 14.44658 -13.01129 L 13.61975 -11.27067 L 13.53856 -11.12828" />
    <path d="M 12.95283 -11.61267 L 12.86565 -11.45975" />
    <path d="M 12.95283 -11.61267 L 13.61975 -11.27067" />
    <path d="M 18.66931 14.19982 L 19.41113 12.29737" />
    <path d="M 18.66931 14.19982 L 17.0876 13.35401" />
    <path d="M -2.91459 -7.05331 L -3.41246 -6.71537" />
    <path d="M -1.85979 -7.13916 L -2.91459 -7.05331" />
    <path d="M 19.16717 13.86188 L 18.66931 14.19982" />
    <path d="M 19.16717 13.86188 L 19.90899 11.95943" />
    <path d="M -0.08354 -11.18106 L -0.08354 -7.59314" />
    <path d="M 1.13179 -10.53117 L 1.13179 -4.98144" />
    <path d="M 13.77967 -13.3533 L 14.44658 -13.01129" />
    <path d="M 13.77967 -13.3533 L 12.95283 -11.61267" />
    <path d="M 12.07326 -10.36053 L 13.77967 -13.3533" />
    <path d="M -1.85979 0.7228 L -1.85979 -3.51682" />
    <path d="M 1.62965 -10.26494 L 1.62965 -4.53226" />
    <path d="M -0.41545 -7.36784 L -0.08354 -7.59314" />
    <path d="M -0.41545 -11.35854 L -0.41545 -7.36784" />
    <path d="M -0.97637 -7.66779 L -0.41545 -7.36784" />
    <path d="M -0.97637 -11.65849 L -0.97637 -7.66779" />
    <path d="M 17.0876 -2.02447 A 1 0.60247 180 0 0 18.29132 -2.16078 L 18.29132 -2.95892 L 20.28277 -4.31067 A 1 0.60247 180 0 0 20.53488 -4.71061 L 20.53488 -3.91246" />
    <path d="M -0.41545 -11.35854 L 7.78955 -6.97097" />
    <path d="M 13.70819 -3.80602 L 14.34605 -3.46493" />
    <path d="M -2.56564 -12.50835 L -0.97637 -11.65849" />
    <path d="M -2.90182 -12.95893 A 1 0.60247 180 0 0 -2.56564 -12.50835 L -2.56564 -13.30649 L 8.60753 -7.3317" />
    <path d="M 20.28277 -3.51253 A 1 0.60247 180 0 0 20.53488 -3.91246" />
    <path d="M 18.29132 -2.16078 L 20.28277 -3.51253 L 20.28277 -4.31067" />
    <path d="M 10.73502 -6.19404 L 10.73703 -6.19297" />
    <path d="M 17.0876 -2.82261 A 1 0.60247 180 0 0 18.29132 -2.95892" />
    <path d="M 1.62965 -9.26362 L 1.89372 -10.12373" />
    <path d="M -2.64972 -14.157 A 1 0.60247 180 0 0 -2.90182 -13.75707 L -2.90182 -12.95893" />
    <path d="M -2.90182 -13.75707 A 1 0.60247 180 0 0 -2.56564 -13.30649" />
    <path d="M -0.65826 -15.50876 L -2.64972 -14.157" />
    <path d="M 0.75345 -15.55941 A 1 0.60247 180 0 0 -0.65826 -15.50876" />
    <path d="M 20.19869 -5.16119 L 16.89019 -6.93039" />
    <path d="M 12.69831 -9.17197 L 12.49497 -9.28071" />
    <path d="M 11.60004 -9.75927 L 0.75345 -15.55941" />
    <path d="M 20.53488 -4.71061 A 1 0.60247 180 0 0 20.19869 -5.16119" />
    <path d="M 0.70014 9.77973 L 0.70014 8.98159" />
    <path d="M 0.95224 8.58165 L 0.95224 9.37979" />
    <path d="M -22.48446 -0.46481 L -22.48446 0.33333" />
</svg>